<?xml version="1.0" encoding="UTF-8" standalone="no"?>
<!-- Created with Inkscape (http://www.inkscape.org/) -->

<svg
   viewBox="0 0 2357.2265 2357.2265"
   inkscape:version="1.2.2 (1:1.2.2+202305151914+b0a8486541)"
   sodipodi:docname="bits error.svg"
   version="1.1"
   id="svg4194"
   xmlns:inkscape="http://www.inkscape.org/namespaces/inkscape"
   xmlns:sodipodi="http://sodipodi.sourceforge.net/DTD/sodipodi-0.dtd"
   xmlns="http://www.w3.org/2000/svg"
   xmlns:svg="http://www.w3.org/2000/svg">
  <defs
     id="defs1965" />
  <sodipodi:namedview
     id="namedview1963"
     pagecolor="#505050"
     bordercolor="#ffffff"
     borderopacity="1"
     inkscape:showpageshadow="0"
     inkscape:pageopacity="0"
     inkscape:pagecheckerboard="1"
     inkscape:deskcolor="#505050"
     showgrid="false"
     inkscape:zoom="0.31438774"
     inkscape:cx="-337.16327"
     inkscape:cy="1181.6619"
     inkscape:window-width="3440"
     inkscape:window-height="1369"
     inkscape:window-x="0"
     inkscape:window-y="34"
     inkscape:window-maximized="1"
     inkscape:current-layer="g1969">
    <inkscape:page
       x="0"
       y="0"
       id="page1967"
       width="2357.2266"
       height="2357.2266" />
  </sodipodi:namedview>
  <g
     id="g1969"
     inkscape:groupmode="layer"
     inkscape:label="Page 1"
     transform="matrix(1.3333333,0,0,-1.3333333,-454.71999,2811.9466)">
    <g
       id="g1971"
       transform="scale(0.1)">
      <path
         d="m 11973.8,14183.7 h -1105 l -828.7,1104.9 H 4515.35 L 3686.64,14183.7 V 3686.6 H 20813.4 v 10497.1 h -1933.7 -6905.9"
         style="fill:#f5d250;fill-opacity:1;fill-rule:nonzero;stroke:none"
         id="path1973" />
      <path
         d="M 21089.6,3410.4 H 3410.4 v 10865.3 l 966.82,1289.2 h 5800.98 l 828.7,-1105 H 12250 v -552.5 h -1519.3 l -828.73,1105 H 4653.46 l -690.58,-920.9 V 3962.9 H 20537.1 v 9944.5 h -1933.6 v 552.5 h 2486.1 V 3410.4"
         style="fill:#000000;fill-opacity:1;fill-rule:nonzero;stroke:none"
         id="path1975" />
      <path
         d="M 12802.5,15012.4 H 12250 v 2209.9 h -276.2 v 552.5 h 828.7 v -2762.4"
         style="fill:#000000;fill-opacity:1;fill-rule:nonzero;stroke:none"
         id="path1977" />
      <path
         d="m 14183.7,15012.4 h -552.5 v 2209.9 h -276.3 v 552.5 h 828.8 v -2762.4"
         style="fill:#000000;fill-opacity:1;fill-rule:nonzero;stroke:none"
         id="path1979" />
      <path
         d="m 15564.8,15012.4 h -552.4 v 2209.9 h -276.3 v 552.5 h 828.7 v -2762.4"
         style="fill:#000000;fill-opacity:1;fill-rule:nonzero;stroke:none"
         id="path1981" />
      <path
         d="m 19155.9,15012.4 h -552.4 v 2209.9 h -276.3 v 552.5 h 828.7 v -2762.4"
         style="fill:#000000;fill-opacity:1;fill-rule:nonzero;stroke:none"
         id="path1983" />
      <path
         d="m 20537.1,15012.4 h -552.5 v 2209.9 h -276.2 v 552.5 h 828.7 v -2762.4"
         style="fill:#000000;fill-opacity:1;fill-rule:nonzero;stroke:none"
         id="path1985" />
      <path
         d="m 16669.8,17222.3 v -1657.4 h 552.5 v 1657.4 z m 552.5,-2209.9 h -552.5 c -304.7,0 -552.5,247.7 -552.5,552.5 v 1657.4 c 0,304.7 247.8,552.5 552.5,552.5 h 552.5 c 304.7,0 552.4,-247.8 552.4,-552.5 v -1657.4 c 0,-304.8 -247.7,-552.5 -552.4,-552.5"
         style="fill:#000000;fill-opacity:1;fill-rule:nonzero;stroke:none"
         id="path1987" />
      <path
         d="m 15288.6,18327.2 h -552.5 v 2209.9 h -276.2 v 552.5 h 828.7 v -2762.4"
         style="fill:#000000;fill-opacity:1;fill-rule:nonzero;stroke:none"
         id="path1989" />
      <path
         d="m 16393.6,20537.1 v -1657.4 h 552.4 v 1657.4 z m 552.4,-2209.9 h -552.4 c -304.7,0 -552.5,247.7 -552.5,552.5 v 1657.4 c 0,304.7 247.8,552.5 552.5,552.5 h 552.4 c 304.7,0 552.5,-247.8 552.5,-552.5 v -1657.4 c 0,-304.8 -247.8,-552.5 -552.5,-552.5"
         style="fill:#000000;fill-opacity:1;fill-rule:nonzero;stroke:none"
         id="path1991" />
      <path
         d="m 18879.7,18327.2 h -552.5 v 2209.9 H 18051 v 552.5 h 828.7 v -2762.4"
         style="fill:#000000;fill-opacity:1;fill-rule:nonzero;stroke:none"
         id="path1993" />
      <path
         d="m 19984.6,20537.1 v -1657.4 h 552.5 v 1657.4 z m 552.5,-2209.9 h -552.5 c -304.6,0 -552.4,247.7 -552.4,552.5 v 1657.4 c 0,304.7 247.8,552.5 552.4,552.5 h 552.5 c 304.7,0 552.5,-247.8 552.5,-552.5 v -1657.4 c 0,-304.8 -247.8,-552.5 -552.5,-552.5"
         style="fill:#000000;fill-opacity:1;fill-rule:nonzero;stroke:none"
         id="path1995" />
      <path
         d="m 14459.9,13078.7 h -552.5 v 828.7 h -552.5 v -828.7 h -552.4 v 828.7 c 0,304.7 247.8,552.5 552.4,552.5 h 552.5 c 304.7,0 552.5,-247.8 552.5,-552.5 v -828.7"
         style="fill:#000000;fill-opacity:1;fill-rule:nonzero;stroke:none"
         id="path1997" />
      <path
         d="m 15841.1,13078.7 h -552.5 v 828.7 h -276.2 v 552.5 h 828.7 v -1381.2"
         style="fill:#000000;fill-opacity:1;fill-rule:nonzero;stroke:none"
         id="path1999" />
      <path
         d="m 18051,13078.7 h -552.5 v 828.7 H 16946 v -828.7 h -552.4 v 828.7 c 0,304.7 247.8,552.5 552.4,552.5 h 552.5 c 304.7,0 552.5,-247.8 552.5,-552.5 v -828.7"
         style="fill:#000000;fill-opacity:1;fill-rule:nonzero;stroke:none"
         id="path2001" />
      <path
         d="m 9349.49,8935.2 h 552.48 c 152.23,0 276.23,123.9 276.23,276.2 0,152.3 -124,276.2 -276.23,276.2 h -552.48 z m 552.48,-552.5 H 8797.04 v 1657.4 h 1104.93 c 456.93,0 828.73,-371.8 828.73,-828.7 0,-457.1 -371.8,-828.7 -828.73,-828.7"
         style="fill:#000000;fill-opacity:1;fill-rule:nonzero;stroke:none"
         id="path2003" />
      <path
         d="m 10730.7,7277.7 h -552.5 V 7554 c 0,244.3 -180.95,737.2 -300.88,828.7 h -527.83 v -1105 h -552.45 v 1657.5 h 1104.93 c 570.43,0 828.73,-1059.6 828.73,-1381.2 v -276.3"
         style="fill:#000000;fill-opacity:1;fill-rule:nonzero;stroke:none"
         id="path2005" />
      <path
         d="m 11835.6,8935.2 h 552.5 c 152.3,0 276.2,123.9 276.2,276.2 0,152.3 -123.9,276.2 -276.2,276.2 h -552.5 z m 552.5,-552.5 h -1104.9 v 1657.4 h 1104.9 c 457,0 828.7,-371.8 828.7,-828.7 0,-457.1 -371.7,-828.7 -828.7,-828.7"
         style="fill:#000000;fill-opacity:1;fill-rule:nonzero;stroke:none"
         id="path2007" />
      <path
         d="m 13216.8,7277.7 h -552.5 V 7554 c 0,244.3 -180.9,737.2 -300.8,828.7 h -527.9 v -1105 h -552.4 v 1657.5 h 1104.9 c 570.4,0 828.7,-1059.6 828.7,-1381.2 v -276.3"
         style="fill:#000000;fill-opacity:1;fill-rule:nonzero;stroke:none"
         id="path2009" />
      <path
         d="m 16807.9,8935.2 h 552.5 c 152.2,0 276.2,123.9 276.2,276.2 0,152.3 -124,276.2 -276.2,276.2 h -552.5 z m 552.5,-552.5 h -1105 v 1657.4 h 1105 c 456.9,0 828.7,-371.8 828.7,-828.7 0,-457.1 -371.8,-828.7 -828.7,-828.7"
         style="fill:#000000;fill-opacity:1;fill-rule:nonzero;stroke:none"
         id="path2011" />
      <path
         d="m 18189.1,7277.7 h -552.5 V 7554 c 0,244.3 -180.9,737.2 -300.9,828.7 h -527.8 v -1105 h -552.5 v 1657.5 h 1105 c 570.4,0 828.7,-1059.6 828.7,-1381.2 v -276.3"
         style="fill:#000000;fill-opacity:1;fill-rule:nonzero;stroke:none"
         id="path2013" />
      <path
         d="m 14736.1,9487.6 c -228.5,0 -414.3,-185.9 -414.3,-414.3 v -828.7 c 0,-228.6 185.8,-414.4 414.3,-414.4 228.6,0 414.4,185.8 414.4,414.4 v 828.7 c 0,228.4 -185.8,414.3 -414.4,414.3 z m 0,-2209.9 c -533,0 -966.8,433.8 -966.8,966.9 v 828.7 c 0,532.9 433.8,966.8 966.8,966.8 533.1,0 966.9,-433.9 966.9,-966.8 v -828.7 c 0,-533.1 -433.8,-966.9 -966.9,-966.9"
         style="fill:#000000;fill-opacity:1;fill-rule:nonzero;stroke:none"
         id="path2015" />
      <path
         d="M 7968.33,8382.7 H 6310.91 v 1657.4 H 8244.57 V 9487.6 H 6863.38 v -552.4 h 1104.95 v -552.5"
         style="fill:#000000;fill-opacity:1;fill-rule:nonzero;stroke:none"
         id="path2017" />
      <path
         d="M 8244.57,7277.7 H 6310.91 v 1657.5 h 552.47 v -1105 h 1381.19 v -552.5"
         style="fill:#000000;fill-opacity:1;fill-rule:nonzero;stroke:none"
         id="path2019" />
      <path
         d="m 7277.73,17222.3 v 2486.1 -2486.1"
         style="fill:#6bd5f0;fill-opacity:1;fill-rule:nonzero;stroke:none"
         id="path2021" />
      <path
         d="m 7553.96,16946 h -552.47 v 3038.7 h 552.47 V 16946"
         style="fill:#000000;fill-opacity:1;fill-rule:nonzero;stroke:none"
         id="path2023" />
      <path
         d="m 8658.91,16946 h -552.47 v 1933.7 h 1104.95 v 1105 h 552.47 V 18327.2 H 8658.91 V 16946"
         style="fill:#000000;fill-opacity:1;fill-rule:nonzero;stroke:none"
         id="path2025" />
      <path
         d="m 6449.01,16946 h -552.47 v 1381.2 H 4791.59 v 1657.5 h 552.47 v -1105 H 6449.01 V 16946"
         style="fill:#000000;fill-opacity:1;fill-rule:nonzero;stroke:none"
         id="path2027" />
      <path
         d="m 7830.2,20260.9 c 0,-305.2 -247.4,-552.5 -552.47,-552.5 -305.08,0 -552.48,247.3 -552.48,552.5 0,305.1 247.4,552.5 552.48,552.5 305.07,0 552.47,-247.4 552.47,-552.5"
         style="fill:#2ed9f5;fill-opacity:1;fill-rule:nonzero;stroke:none"
         id="path2029" />
      <path
         d="m 7277.73,20537.1 c -152.27,0 -276.24,-123.9 -276.24,-276.2 0,-152.3 123.97,-276.2 276.24,-276.2 152.26,0 276.23,123.9 276.23,276.2 0,152.3 -123.97,276.2 -276.23,276.2 z m 0,-1104.9 c -456.93,0 -828.72,371.6 -828.72,828.7 0,456.9 371.79,828.7 828.72,828.7 456.94,0 828.71,-371.8 828.71,-828.7 0,-457.1 -371.77,-828.7 -828.71,-828.7"
         style="fill:#000000;fill-opacity:1;fill-rule:nonzero;stroke:none"
         id="path2031" />
      <path
         d="m 10040.1,20260.9 c 0,-305.2 -247.4,-552.5 -552.48,-552.5 -305.07,0 -552.47,247.3 -552.47,552.5 0,305.1 247.4,552.5 552.47,552.5 305.08,0 552.48,-247.4 552.48,-552.5"
         style="fill:#2ed9f5;fill-opacity:1;fill-rule:nonzero;stroke:none"
         id="path2033" />
      <path
         d="m 9487.62,20537.1 c -152.26,0 -276.23,-123.9 -276.23,-276.2 0,-152.3 123.97,-276.2 276.23,-276.2 152.27,0 276.24,123.9 276.24,276.2 0,152.3 -123.97,276.2 -276.24,276.2 z m 0,-1104.9 c -456.94,0 -828.71,371.6 -828.71,828.7 0,456.9 371.77,828.7 828.71,828.7 456.93,0 828.68,-371.8 828.68,-828.7 0,-457.1 -371.75,-828.7 -828.68,-828.7"
         style="fill:#000000;fill-opacity:1;fill-rule:nonzero;stroke:none"
         id="path2035" />
      <path
         d="m 5620.3,20260.9 c 0,-305.2 -247.4,-552.5 -552.47,-552.5 -305.08,0 -552.48,247.3 -552.48,552.5 0,305.1 247.4,552.5 552.48,552.5 305.07,0 552.47,-247.4 552.47,-552.5"
         style="fill:#2ed9f5;fill-opacity:1;fill-rule:nonzero;stroke:none"
         id="path2037" />
      <path
         d="m 5067.83,20537.1 c -152.27,0 -276.24,-123.9 -276.24,-276.2 0,-152.3 123.97,-276.2 276.24,-276.2 152.26,0 276.23,123.9 276.23,276.2 0,152.3 -123.97,276.2 -276.23,276.2 z m 0,-1104.9 c -456.95,0 -828.72,371.6 -828.72,828.7 0,456.9 371.77,828.7 828.72,828.7 456.92,0 828.71,-371.8 828.71,-828.7 0,-457.1 -371.79,-828.7 -828.71,-828.7"
         style="fill:#000000;fill-opacity:1;fill-rule:nonzero;stroke:none"
         id="path2039" />
      <path
         d="M 16393.6,6172.8 H 8106.44 v -1105 h 8287.16 v 1105"
         style="fill:#aaaaaa;fill-opacity:1;fill-rule:nonzero;stroke:none"
         id="path2041" />
      <path
         d="m 8382.68,5344.1 h 7734.62 v 552.4 H 8382.68 Z M 16669.8,4791.6 H 7830.2 V 6449 h 8839.6 V 4791.6"
         style="fill:#000000;fill-opacity:1;fill-rule:nonzero;stroke:none"
         id="path2043" />
      <path
         d="m 19155.9,11973.8 h -7458.4 v 1381.1 h 552.5 v -828.7 h 6353.5 v 828.7 h 552.4 v -1381.1"
         style="fill:#000000;fill-opacity:1;fill-rule:nonzero;stroke:none"
         id="path2045" />
      <path
         d="m 7156.45,16001.6 -2156,-3907.8 c -61.72,-106.8 -127.2,-373.5 -69.8,-571.4 39.08,-134.9 135.14,-238 328.4,-237.1 l 4996.65,2.2 c -31,-1.1 28.6,155.6 83,335 54.4,179.3 103.6,381.4 51.7,471.3 l -2290.7,3907.8 c -46.62,80.7 -220.6,125.2 -407.61,133.4 -229.49,10.1 -478.51,-34.4 -535.64,-133.4"
         style="fill:#8d7de4;fill-opacity:1;fill-rule:nonzero;stroke:none"
         id="path2047" />
      <path
         d="m 7213.58,15944.6 h 2.82 z m 478.51,0 c -47.85,0 -167.23,-13.5 -239.19,-138.1 L 5240.43,11973.8 c -71.96,-124.7 -23.96,-234.8 -0.13,-276.3 23.99,-41.6 95.41,-138.1 239.32,-138.1 h 4424.92 c 143.96,0 215.36,96.5 239.36,138.1 23.8,41.5 71.8,151.6 -0.2,276.3 l -2212.44,3832.7 c -71.95,124.6 -191.34,138.1 -239.17,138.1 z M 9904.54,11006.9 H 5479.62 c -299.54,0 -567.84,154.9 -717.68,414.4 -149.84,259.4 -149.72,569.3 0,828.7 l 2212.45,3832.7 c 149.84,259.5 418.14,414.4 717.7,414.4 299.54,0 567.96,-154.9 717.66,-414.4 L 10622.2,12250 c 149.7,-259.4 149.9,-569.3 0,-828.7 -149.8,-259.5 -418.1,-414.4 -717.66,-414.4"
         style="fill:#000000;fill-opacity:1;fill-rule:nonzero;stroke:none"
         id="path2049" />
      <path
         d="m 7692.09,14582.4 v -1105 1105"
         style="fill:#f95555;fill-opacity:1;fill-rule:nonzero;stroke:none"
         id="path2051" />
      <path
         d="m 7968.33,13201.3 h -552.47 v 1657.5 h 552.47 v -1657.5"
         style="fill:#000000;fill-opacity:1;fill-rule:nonzero;stroke:none"
         id="path2053" />
      <path
         d="m 7692.09,12372.5 v -276.3 276.3"
         style="fill:#f95555;fill-opacity:1;fill-rule:nonzero;stroke:none"
         id="path2055" />
      <path
         d="m 7415.86,12095.2 v 552.6 h 552.47 v -552.6 c -552.47,0 0,0 -552.47,0"
         style="fill:#000000;fill-opacity:1;fill-rule:nonzero;stroke:none"
         id="path2057" />
    </g>
  </g>
</svg>
