<?xml version="1.0" encoding="UTF-8" standalone="no"?>
<!-- Created with Inkscape (http://www.inkscape.org/) -->

<svg
   version="1.1"
   viewBox="0 0 3138.3897 4595.0947"
   sodipodi:docname="stop buffalo.svg"
   inkscape:version="1.2.2 (1:1.2.2+202305151914+b0a8486541)"
   id="svg5999"
   xmlns:inkscape="http://www.inkscape.org/namespaces/inkscape"
   xmlns:sodipodi="http://sodipodi.sourceforge.net/DTD/sodipodi-0.dtd"
   xmlns="http://www.w3.org/2000/svg"
   xmlns:svg="http://www.w3.org/2000/svg">
  <defs
     id="defs6" />
  <sodipodi:namedview
     id="namedview4"
     pagecolor="#505050"
     bordercolor="#ffffff"
     borderopacity="1"
     inkscape:showpageshadow="0"
     inkscape:pageopacity="0"
     inkscape:pagecheckerboard="1"
     inkscape:deskcolor="#505050"
     showgrid="false"
     inkscape:zoom="0.38512498"
     inkscape:cx="301.20092"
     inkscape:cy="2226.5499"
     inkscape:window-width="3440"
     inkscape:window-height="1369"
     inkscape:window-x="0"
     inkscape:window-y="34"
     inkscape:window-maximized="1"
     inkscape:current-layer="g12">
    <inkscape:page
       x="0"
       y="0"
       id="page8"
       width="3138.3896"
       height="4595.0947" />
  </sodipodi:namedview>
  <g
     id="g10"
     inkscape:groupmode="layer"
     inkscape:label="Page 1"
     transform="matrix(1.3333333,0,0,-1.3333333,-1522.4056,4856.8351)">
    <g
       id="g12"
       transform="matrix(0.1,0,0,0.1,3.8244738,-3.8247115)">
      <path
         d="m 25139.6,21347.1 2951,936.1 c 231.4,616.8 605.7,803.5 898.6,1039.9 l 787.3,-379.2 136.6,-1841.8 c -333.3,-55.7 -644.8,-67.2 -923.3,-12.1 -184,36.4 -371.8,48.8 -558.5,31.4 l -5.1,-0.5 -2904.9,-1156.9 -381.7,1383.1"
         style="fill:#fbd3a8;fill-opacity:1;fill-rule:nonzero;stroke:#0f0215;stroke-opacity:1;stroke-width:101.25000253;stroke-dasharray:none;paint-order:stroke fill markers;stroke-linejoin:round;stroke-linecap:round"
         id="path16" />
      <path
         d="m 29292.1,22878.9 -609.6,-710.1 c -32,-409.7 213.6,-673.9 680.7,-821.7 l 664.9,1113 -736,418.8"
         style="fill:#f8a364;fill-opacity:1;fill-rule:nonzero;stroke:none"
         id="path18" />
      <path
         d="m 29292.1,20149.2 v 0 c -170.7,14.4 -297.4,164.5 -283,335.1 L 30176,34317.6 c 14.4,170.6 164.5,297.3 335.1,282.9 170.7,-14.4 297.4,-164.4 283,-335.1 l -1167,-13833.2 c -14.4,-170.7 -164.4,-297.4 -335,-283"
         style="fill:#a97c50;fill-opacity:1;fill-rule:nonzero;stroke:#361504;stroke-width:372.997;stroke-dasharray:none;stroke-opacity:0.579919;paint-order:stroke fill markers"
         id="path22" />
      <path
         d="m 34192,26198.6 -8717.3,735.4 617.4,7318.6 8717.3,-735.4 -617.4,-7318.6"
         style="fill:#e0e0e0;fill-opacity:1;fill-rule:nonzero;stroke:#2a1e1e;stroke-width:200.497;stroke-dasharray:none;stroke-opacity:0.579919;paint-order:stroke fill markers"
         id="path24" />
      <path
         d="m 29275.6,22836.1 c 24.8,-159.6 334.2,-244.2 691.3,-188.9 357.1,55.2 626.5,229.5 601.8,389.1 -24.7,159.6 -334.2,244.2 -691.3,188.9 -357,-55.3 -626.5,-229.5 -601.8,-389.1 z"
         style="fill:none;stroke:#f8a364;stroke-width:10;stroke-linecap:butt;stroke-linejoin:miter;stroke-miterlimit:10;stroke-dasharray:none;stroke-opacity:1"
         id="path28" />
      <path
         d="m 29459.5,22327.4 c 24.7,-159.6 310.4,-247.9 638,-197.2 327.7,50.8 573.3,221.3 548.6,380.9 -24.7,159.6 -310.4,247.9 -638,197.2 -327.7,-50.7 -573.3,-221.3 -548.6,-380.9 z"
         style="fill:none;stroke:#f8a364;stroke-width:10;stroke-linecap:butt;stroke-linejoin:miter;stroke-miterlimit:10;stroke-dasharray:none;stroke-opacity:1"
         id="path30" />
      <path
         d="m 29410.8,21959.4 c -29.7,-158.7 210.4,-336.9 536.2,-398 325.9,-61.1 614.2,18.1 644,176.9 29.7,158.7 -210.3,337 -536.2,398 -325.9,61.1 -614.2,-18.1 -644,-176.9 z"
         style="fill:none;stroke:#f8a364;stroke-width:10;stroke-linecap:butt;stroke-linejoin:miter;stroke-miterlimit:10;stroke-dasharray:none;stroke-opacity:1"
         id="path32" />
      <path
         d="m 29270.2,21575.8 c -53.9,-139.1 133.8,-341.7 419.4,-452.5 285.6,-110.7 560.8,-87.8 614.8,51.4 53.9,139.1 -133.8,341.7 -419.4,452.4 -285.5,110.8 -560.8,87.8 -614.8,-51.3 z"
         style="fill:none;stroke:#f8a364;stroke-width:10;stroke-linecap:butt;stroke-linejoin:miter;stroke-miterlimit:10;stroke-dasharray:none;stroke-opacity:1"
         id="path34" />
      <path
         d="m 29279.4,22836.7 c 24.8,-159.6 334.2,-244.2 691.3,-188.9 357.1,55.2 626.5,229.4 601.8,389.1 -24.7,159.6 -334.2,244.2 -691.3,188.9 -357,-55.3 -626.5,-229.5 -601.8,-389.1"
         style="fill:#fbd3a8;fill-opacity:1;fill-rule:nonzero;stroke:#0f0215;stroke-opacity:1;stroke-width:101.25000253;stroke-dasharray:none;paint-order:stroke fill markers;stroke-linejoin:round;stroke-linecap:round"
         id="path36" />
      <path
         d="m 29463.3,22328 c 24.7,-159.6 310.4,-247.9 638,-197.2 327.7,50.7 573.3,221.3 548.6,380.9 -24.7,159.6 -310.4,247.9 -638,197.2 -327.7,-50.7 -573.3,-221.3 -548.6,-380.9"
         style="fill:#fbd3a8;fill-opacity:1;fill-rule:nonzero;stroke:#0f0215;stroke-opacity:1;stroke-width:101.25000253;stroke-dasharray:none;paint-order:stroke fill markers;stroke-linejoin:round;stroke-linecap:round"
         id="path38" />
      <path
         d="m 29414.6,21960 c -29.7,-158.7 210.4,-337 536.2,-398 325.9,-61.1 614.2,18.1 644,176.9 29.7,158.7 -210.3,336.9 -536.2,398 -325.9,61.1 -614.2,-18.1 -644,-176.9"
         style="fill:#fbd3a8;fill-opacity:1;fill-rule:nonzero;stroke:#0f0215;stroke-opacity:1;stroke-width:101.25000253;stroke-dasharray:none;paint-order:stroke fill markers;stroke-linejoin:round;stroke-linecap:round"
         id="path40" />
      <path
         d="m 29274.1,21576.4 c -54,-139.2 133.7,-341.7 419.3,-452.5 285.6,-110.8 560.8,-87.8 614.8,51.4 53.9,139.1 -133.8,341.6 -419.4,452.4 -285.5,110.8 -560.8,87.8 -614.7,-51.3"
         style="fill:#fbd3a8;fill-opacity:1;fill-rule:nonzero;stroke:#0f0215;stroke-opacity:1;stroke-width:101.25000253;stroke-dasharray:none;paint-order:stroke fill markers;stroke-linejoin:round;stroke-linecap:round"
         id="path42" />
      <path
         d="m 30090,22906.1 c 1.3,-29.1 2.4,-57.9 1.1,-86.6 -1.5,-28.6 -4.3,-56.9 -10.7,-84.1 -11.9,-54.7 -40.2,-103.9 -83.5,-134 -5,-4.2 -11,-7.2 -16.6,-10.6 -2.9,-1.6 -5.7,-3.4 -8.6,-4.9 l -9.1,-4.1 c -11.9,-5.9 -24.3,-10.5 -37.1,-13.9 -25.6,-6.9 -52.2,-9.9 -79,-8.9 -13.5,0.6 -26.1,1.5 -40.4,4.1 l -41.9,6.7 c -14.1,1.8 -27.7,5.6 -41.5,8.4 -13.7,3.3 -27.7,5.4 -41,9.8 -108.5,29 -211.3,78.1 -297.9,150.8 -87.2,71.9 -158.6,163.1 -226.8,257 50.3,-104.3 114.1,-204.7 201,-286.3 42.9,-41.1 91.9,-76.4 144.6,-104.5 52.8,-27.9 108.6,-50.5 166.2,-65.3 14.2,-4.5 28.9,-6.7 43.4,-10.1 14.6,-2.8 29,-6.8 43.7,-8.4 l 44,-6.1 c 14.2,-2.4 30.5,-3.4 45.9,-3.4 31.1,-0.1 62.5,4.3 92.4,14.1 14.9,4.8 29.6,10.9 43.2,18.7 l 10.3,5.6 c 3.4,1.9 6.6,4.3 9.9,6.5 6.4,4.4 13.1,8.6 19,13.9 24.4,19.9 44.9,45.1 58.5,73.1 13.6,27.9 21.8,57.7 25.3,87.5 6.6,59.8 -0.6,118.6 -14.4,175"
         style="fill:#f8a364;fill-opacity:1;fill-rule:nonzero;stroke:none"
         id="path44" />
      <path
         d="m 28543.8,22126.6 c 387.8,83.5 652.1,287.4 717.2,685.3 l -269.6,311.1 -597.5,-832.8 149.9,-163.6"
         style="fill:#fbd3a8;fill-opacity:1;fill-rule:nonzero;stroke:#0f0215;stroke-opacity:1;stroke-width:101.25000253;stroke-dasharray:none;paint-order:stroke fill markers;stroke-linejoin:round;stroke-linecap:round"
         id="path46" />
      <path
         d="m 28989.2,23323.1 152.4,75.4 c 132.5,65.5 289.8,55.7 413.1,-25.7 l 353.1,-233.2 c 108,-71.3 181.6,-186.4 194.2,-315.2 9.7,-99.5 -19.6,-178.4 -91.9,-234.7 -60.4,-46.9 -137.7,-65.7 -213.7,-57.9 -363.2,37.4 -615.5,341.4 -807.2,791.3"
         style="fill:#fbd3a8;fill-opacity:1;fill-rule:nonzero;stroke:#0f0215;stroke-opacity:1;stroke-width:101.25000253;stroke-dasharray:none;paint-order:stroke fill markers;stroke-linejoin:round;stroke-linecap:round"
         id="path48" />
      <path
         d="m 25358.8,3530.5 c 0,-844.6 -2388.4,-1529.2 -5334.5,-1529.2 -2946.2,0 -5334.6,684.6 -5334.6,1529.2 0,844.6 2388.4,1529.2 5334.6,1529.2 2946.1,0 5334.5,-684.6 5334.5,-1529.2"
         style="fill:#020304;fill-opacity:0.275081;fill-rule:nonzero;stroke:none"
         id="path52" />
      <path
         d="m 28647.219,30378.96 626.855,-368.39 -378.755,-129.907 z m 2953.393,-231.508 -676.6,-266.217 353.886,-187.336 z m -1673.02,-2388.769 c -236.049,18.503 -406.408,71.648 -588.136,155.169 -28.209,115.25 -47.683,224.757 -60.919,329.521 l 324.858,-27.886 -349.096,350.218 260.202,247.645 c 139.385,-72.909 281.871,-128.834 484.42,-144.711 202.55,-15.878 351.978,17.165 501.052,67.463 l 218.435,-285.164 -399.431,-291.543 325.235,-23.073 c -29.398,-101.423 -65.666,-206.56 -111.49,-316.007 -192.522,-54.185 -369.111,-80.133 -605.13,-61.632 z m 2591.864,2437.169 c 208.042,-79.624 397.738,-209.179 512.712,-418.508 -181.51,-188.881 -651.216,-301.911 -1036.299,-214.4 l -268.741,-1074.437 -374.805,-235.526 -235.02,-706.027 -813.919,-682.87 25.262,322.269 -478.061,-410.057 -408.327,479.539 -25.261,-322.27 -697.607,801.355 -122.106,734.021 -333.53,291.05 -98.041,1103.189 c -394.015,-26.44 -840.373,158.398 -990.234,373.254 146.183,188.827 353.751,287.272 571.628,333.51 -702.527,609.835 -519.862,1935.627 310.37,2436.611 -55.798,-300.446 -107.753,-719.727 -114.536,-1001.451 -9.605,-399.322 11.005,-396.934 342.079,-594.958 405.011,-242.307 787.8,-437.867 1233.662,-647.249 l -137.597,-1755.346 -362.338,-325.923 c 23.534,-279.445 68.841,-609.388 176.069,-907.623 240.472,-100.665 473.354,-156.413 719.994,-178.384 247.051,-16.728 485.776,2.052 738.965,64.021 152.388,277.884 248.583,596.734 315.372,869.099 l -307.128,378.4 137.597,1755.347 c 473.011,137.354 881.628,270.878 1319.446,447.118 357.887,144.018 377.873,138.447 430.605,534.389 37.168,279.342 51.178,701.597 42.906,1007.066 742.031,-624.23 715.856,-1962.288 -73.117,-2455.209 z m -2119.803,3584.989 c -386.819,-190.822 -743.682,-409.69 -1073.832,-653.621 7.416,94.612 14.83,189.192 22.249,283.833 -400.321,-183.306 -743.482,-407.532 -1057.203,-652.533 -87.79,-316.964 -104.527,-658.773 -79.56,-1014.963 237.261,-173.32 529.335,-345.01 821.267,-499.928 5.484,69.964 10.971,139.959 16.453,209.89 412.863,-290.224 751.111,-471.958 1116.049,-665.219 390.594,134.037 753.058,260.844 1206.069,483.195 -5.481,-69.932 -10.968,-139.927 -16.452,-209.891 312.535,107.535 627.765,231.62 889.164,365.852 80.102,347.954 116.828,688.196 79.561,1014.963 -271.745,290.895 -575.807,565.854 -942.677,809.299 -7.418,-94.642 -14.832,-189.222 -22.249,-283.834 -288.077,292.392 -606.478,564.193 -958.839,812.957 v 0"
         style="fill:#401f1f;fill-opacity:1;fill-rule:evenodd;stroke:none;stroke-width:0.309427"
         id="path3369" />
      <path
         d="M 17692.7,5489.1 H 18851 l 359,5314.4 h -1975.7 c 232.2,-2641.3 458.4,-5314.4 458.4,-5314.4"
         style="fill:#fbd3a8;fill-opacity:1;fill-rule:nonzero;stroke:none"
         id="path54" />
      <path
         d="m 18845.3,5581.3 49.1,644.7 -1264,-4.5 c 0,0 62.3,-581.1 62.3,-732.4 0,0 -75.7,-363.1 -211.8,-590 -136.2,-227 253,-458 752.2,-458 499.3,0 760.6,94.9 775.8,246.2 15.1,151.3 -163.6,624.7 -163.6,894"
         style="fill:#ffffff;fill-opacity:1;fill-rule:nonzero;stroke:none"
         id="path56" />
      <path
         d="m 19450.4,3400.3 c -30.3,287.4 -211.5,383.9 -211.5,383.9 0,66.2 -1142.5,0 -1142.5,0 0,0 -1142.5,66.2 -1142.5,0 0,0 -181.3,-96.5 -211.5,-383.9 -30.3,-287.4 -105.9,-635.4 1354,-635.4 1459.9,0 1384.2,348 1354,635.4"
         style="fill:#be1e2d;fill-opacity:1;fill-rule:nonzero;stroke:none"
         id="path58" />
      <path
         d="m 19450.4,3400.3 c -0.1,0.5 -0.1,1.1 -0.2,1.6 0.1,-0.6 0.1,-1.1 0.2,-1.6 m -0.2,1.9 c -0.1,0.5 -0.1,0.9 -0.2,1.3 0.1,-0.4 0.1,-0.8 0.2,-1.3 m -0.2,1.6 c -19.1,173.7 -93.5,277 -148.6,331.2 54.9,-53.6 129.4,-156.4 148.6,-331.2"
         style="fill:#6391aa;fill-opacity:1;fill-rule:nonzero;stroke:none"
         id="path60" />
      <path
         d="m 18096.4,2764.9 c -1211.8,0 -1365.6,239.8 -1365.6,485.6 0,50.4 6.4,101 11.6,149.8 0,0 -39.4,-474.3 937.2,-474.2 79.7,0 166.1,3.1 259.9,9.9 793,57.8 979,321.5 1009.7,504.9 343.1,51.4 349.9,134.1 349.9,140.5 0,0.3 0,0.4 0,0.4 v 0 0 0 c 0,0 -21.1,72.9 -51.9,181.7 l 13.6,6.1 c 10.7,-7.8 24.9,-19.2 40.6,-34.6 55.1,-54.2 129.5,-157.5 148.6,-331.2 0,-0.1 0,-0.2 0,-0.3 0.1,-0.4 0.1,-0.8 0.2,-1.3 0,-0.1 0,-0.2 0,-0.3 0.1,-0.5 0.1,-1.1 0.2,-1.6 v 0 c 5.1,-48.8 11.6,-99.4 11.6,-149.8 0,-245.8 -153.8,-485.6 -1365.6,-485.6"
         style="fill:#9a1824;fill-opacity:1;fill-rule:nonzero;stroke:none"
         id="path62" />
      <path
         d="m 18618.3,4882.9 c 0,0 15.1,242 -136.1,257.2 -151.3,15.1 -499.3,15.1 -620.3,0 -121,-15.2 -166.4,-257.2 -166.4,-257.2 0,0 -257.2,15.1 -317.7,-166.4 -60.5,-181.6 -453.9,-877.5 -484.1,-1149.8 0,0 255.3,-166.4 1337.9,-166.4 1082.6,0 1067.5,181.5 1067.5,181.5 0,0 -268.7,929.1 -290.2,1105.5 -21.5,176.4 -390.6,195.6 -390.6,195.6"
         style="fill:#ed1c24;fill-opacity:1;fill-rule:nonzero;stroke:none"
         id="path64" />
      <path
         d="m 18231.6,3400.3 c -1082.6,0 -1337.9,166.4 -1337.9,166.4 0,0 137.8,-15.6 343.2,-15.6 591.1,0 1741.4,129.8 1772,1136.2 21.5,-176.4 290.2,-1105.5 290.2,-1105.5 v 0 c 0,0 0,-0.1 0,-0.4 0,-6.4 -6.8,-89.1 -349.9,-140.5 -157.6,-23.6 -386.2,-40.6 -717.6,-40.6"
         style="fill:#c0171d;fill-opacity:1;fill-rule:nonzero;stroke:none"
         id="path66" />
      <path
         d="m 18895.6,6174 h -1259.1 l -6.5,99.4 h 1270.8 l -5.2,-99.4"
         style="fill:#be1e2d;fill-opacity:1;fill-rule:nonzero;stroke:none"
         id="path68" />
      <path
         d="m 22331.2,5489.1 h -1158.3 l -359,5314.4 h 1975.6 c -232.1,-2641.3 -458.3,-5314.4 -458.3,-5314.4"
         style="fill:#fbd3a8;fill-opacity:1;fill-rule:nonzero;stroke:none"
         id="path70" />
      <path
         d="m 21178.6,5581.3 -49.1,644.7 1263.9,-4.5 c 0,0 -62.2,-581.1 -62.2,-732.4 0,0 75.6,-363.1 211.8,-590 136.1,-227 -253,-458 -752.3,-458 -499.2,0 -760.6,94.9 -775.7,246.2 -15.1,151.3 163.6,624.7 163.6,894"
         style="fill:#ffffff;fill-opacity:1;fill-rule:nonzero;stroke:none"
         id="path72" />
      <path
         d="m 20573.5,3400.3 c 30.2,287.4 211.4,383.9 211.4,383.9 0,66.2 1142.6,0 1142.6,0 0,0 1142.5,66.2 1142.5,0 0,0 181.2,-96.5 211.5,-383.9 30.2,-287.4 105.8,-635.4 -1354,-635.4 -1459.9,0 -1384.3,348 -1354,635.4"
         style="fill:#be1e2d;fill-opacity:1;fill-rule:nonzero;stroke:none"
         id="path74" />
      <path
         d="m 20573.5,3400.3 c 0,0.5 0.1,1.1 0.1,1.6 0,-0.6 -0.1,-1.1 -0.1,-1.6 m 0.2,1.9 c 0,0.5 0.1,0.9 0.1,1.4 0,-0.5 -0.1,-0.9 -0.1,-1.4 m 0.1,1.5 c 19.2,174.6 93.5,277.4 148.3,331.1 -55,-54.3 -129.2,-157.6 -148.3,-331.1"
         style="fill:#6391aa;fill-opacity:1;fill-rule:nonzero;stroke:none"
         id="path76" />
      <path
         d="m 21927.5,2764.9 c -1211.9,0 -1365.7,239.8 -1365.6,485.6 0,50.4 6.4,101 11.6,149.8 v 0 c 0,0.5 0.1,1 0.1,1.6 0.1,0.1 0.1,0.2 0.1,0.3 0,0.5 0.1,0.9 0.1,1.4 v 0.1 c 19.1,173.5 93.3,276.8 148.3,331.1 15.9,15.5 30.2,26.9 41,34.8 l 13.6,-6.1 c -30.9,-108.8 -51.9,-181.7 -51.9,-181.7 0,0 0,-0.1 0,-0.4 0,-6.4 6.7,-89.1 349.8,-140.5 30.7,-183.4 216.7,-447.1 1009.7,-504.9 93.8,-6.8 180.3,-9.9 260,-9.9 976.5,0 937.2,474.2 937.2,474.2 5.1,-48.8 11.6,-99.4 11.6,-149.8 0,-245.8 -153.8,-485.6 -1365.6,-485.6"
         style="fill:#9a1824;fill-opacity:1;fill-rule:nonzero;stroke:none"
         id="path78" />
      <path
         d="m 21405.5,4882.9 c 0,0 -15.1,242 136.2,257.2 151.3,15.1 499.2,15.1 620.3,0 121,-15.2 166.4,-257.2 166.4,-257.2 0,0 257.2,15.1 317.7,-166.4 60.5,-181.6 453.8,-877.5 484.1,-1149.8 0,0 -255.3,-166.4 -1337.9,-166.4 -1082.7,0 -1067.5,181.5 -1067.5,181.5 0,0 268.7,929.1 290.2,1105.5 21.5,176.4 390.5,195.6 390.5,195.6"
         style="fill:#ed1c24;fill-opacity:1;fill-rule:nonzero;stroke:none"
         id="path80" />
      <path
         d="m 21792.3,3400.3 c -331.5,0 -560.1,17 -717.7,40.6 -343.1,51.4 -349.8,134.1 -349.8,140.5 0,0.3 0,0.4 0,0.4 0,0 268.7,929.1 290.2,1105.5 30.6,-1006.4 1180.8,-1136.2 1771.9,-1136.2 205.4,0 343.3,15.6 343.3,15.6 0,0 -255.3,-166.4 -1337.9,-166.4"
         style="fill:#c0171d;fill-opacity:1;fill-rule:nonzero;stroke:none"
         id="path82" />
      <path
         d="m 21128.2,6174 h 1259.1 l 6.5,99.4 h -1270.7 l 5.1,-99.4"
         style="fill:#be1e2d;fill-opacity:1;fill-rule:nonzero;stroke:none"
         id="path84" />
      <path
         d="M 20243.1,13638.9 H 16807.6 V 8396.7 c 1079.7,-354.2 2081.8,-330.3 3020.9,0 v 1751.7 c 0,34.8 15.6,67.7 42.6,89.8 113.9,93.2 277.9,93.2 391.9,0 26.9,-22.1 42.5,-55 42.5,-89.8 V 8396.7 c 939.1,-330.3 1941.2,-354.2 3020.9,0 v 5242.2 h -3083.3"
         style="fill:#5a1b9a;fill-opacity:1;fill-rule:nonzero;stroke:#4d0645;stroke-width:165.247;stroke-linecap:round;stroke-linejoin:round;stroke-dasharray:none;stroke-opacity:0.579919;paint-order:stroke fill markers"
         id="path86" />
      <path
         d="m 21099.9,23172.7 h -2045 c 17,-830.2 -98.5,-1353 -220.4,-1680 -45.9,-123.3 -9.6,-262 88.5,-349.6 446.7,-399.3 1781.1,-542.4 2324.4,43.2 81.5,87.9 106.3,214.1 65.4,326.7 -119.1,328.2 -229.6,846.5 -212.9,1659.7"
         style="fill:#fbd3a8;fill-opacity:1;fill-rule:nonzero;stroke:none;stroke-width:101.25000253;stroke-dasharray:none"
         id="path88" />
      <path
         d="m 20073.3,22157.7 c -447.5,0 -891.7,118.1 -1008.2,349.6 l 55.4,553.9 1928.7,-13 32.7,-562 c -149.7,-220.4 -580.6,-328.5 -1008.6,-328.5"
         style="fill:#fac290;fill-opacity:1;fill-rule:nonzero;stroke:none"
         id="path90" />
      <g
         id="g5857"
         style="fill:#f3fb00;fill-opacity:1">
        <path
           d="m 22364.8,21833.9 922.7,-2917.5 c 999.9,303.6 1888.5,479.1 2630.1,939.5 -23.9,877.9 -83.6,1232.4 -334.3,1863.5 -1113.8,-82 -2222,22.9 -3218.5,114.5"
           style="fill:#f3fb00;fill-opacity:1;fill-rule:nonzero;stroke:none"
           id="path20" />
        <path
           d="m 16927.5,21488.2 -2743.8,-848.1 488.1,-1785.9 c 527.6,-271.4 1570.9,-144.1 2255.7,0 v 2634"
           style="fill:#f3fb00;fill-opacity:1;fill-rule:nonzero;stroke:none"
           id="path50" />
        <path
           d="m 23251.9,21494.4 c -693.6,328.4 -1385.7,508.5 -2076.3,543.7 -234.4,-540.1 -490.5,-874 -1101.5,-880.5 -610.9,6.5 -860.4,340.4 -1094.8,880.5 -738.9,-72 -1439.5,-246.1 -2090.6,-551.7 l -196.1,-7970.9 c 1988.4,-823.1 5038.6,-726.6 6698.8,0 l -139.5,7978.9"
           style="fill:#f3fb00;fill-opacity:1;fill-rule:nonzero;stroke:none"
           id="path92" />
      </g>
      <path
         d="m 18979.3,22038.1 c 468.1,-936.7 1677.8,-975.9 2196.3,0 l 249,-19 c -378.6,-1290.2 -2179.8,-1429.4 -2732.5,-14.5 l 287.2,33.5"
         style="mix-blend-mode:color-burn;fill:#02121b;fill-opacity:0.733328;fill-rule:nonzero;stroke:none"
         id="path94" />
      <path
         d="m 23337.3,16609.6 c -2166.3,-154.5 -4356.8,-148.3 -6568.6,0 l 65.2,2651.4 c 2206.2,-114.5 4360.8,-119.3 6457,0 l 46.4,-2651.4"
         style="mix-blend-mode:color-burn;fill:#02121b;fill-opacity:0.733328;fill-rule:nonzero;stroke:none"
         id="path96" />
      <path
         d="m 23287.5,19458.6 c -2106.3,-120 -4256.5,-116.8 -6448.7,0 l 5.7,233.6 c 2195.7,-89.3 4344.4,-93.6 6438.9,0 l 4.1,-233.6"
         style="mix-blend-mode:color-burn;fill:#02121b;fill-opacity:0.733328;fill-rule:nonzero;stroke:none"
         id="path98" />
      <path
         d="m 23344.8,16178.4 c -2184.9,-188.7 -4380.7,-186.8 -6587,0 l 6.1,233.6 c 2200.1,-171.9 4392.4,-171.6 6576.8,0 l 4.1,-233.6"
         style="mix-blend-mode:color-burn;fill:#02121b;fill-opacity:0.733328;fill-rule:nonzero;stroke:none"
         id="path100" />
      <path
         d="m 19828.5,8396.7 v 1737.2 c -3.8,80.4 76.2,175.7 238.5,174.2 v 144.1 h -828.1 l 414.1,-223.3 V 8338.8 l 175.5,57.9"
         style="fill:#343335;fill-opacity:1;fill-rule:nonzero;stroke:none"
         id="path102" />
      <path
         d="m 20305.5,8396.7 v 1737.2 c 3.8,80.4 -76.2,175.7 -238.5,174.2 v 144.1 h 828.1 l -414,-223.3 V 8338.8 l -175.6,57.9"
         style="fill:#343335;fill-opacity:1;fill-rule:nonzero;stroke:none"
         id="path104" />
      <path
         d="m 13824.8,21353.3 c 46.9,-243.9 94.3,-566.6 94.3,-566.6 -19.7,-216 45,-780.8 45,-780.8 0,0 -49.3,-543.4 123.2,-940.3 236.7,-544.2 1111.5,-262.4 1111.5,-262.4 310.6,-87.6 1066,3.2 1373.9,496.5 308.6,495.6 936.6,964.1 936.6,964.1 0,0 -47.1,317.3 -332.9,215.9 -288.6,-102.9 -565.2,-489.2 -706.9,-495.2 -28.8,-1.1 -56.9,0 -83.8,5.5 0,0 -2.2,0.6 -7.2,-0.3 -102.1,15.7 -196.2,66.9 -240.1,143.8 -3.8,3.5 -9,9.8 -11.5,17.6 -142.8,314.5 23,1067.6 128.2,1394.9 147.3,455 498.5,1392.5 187.6,1367.3 -311,-25.2 -313.5,-654.5 -825.7,-1602.8 l -108.7,17.6 c -40.7,-66.4 56.5,979.7 199.2,1637.6 96.9,453.1 -241.6,374.2 -345.8,252.9 -106.5,-120.7 -226.1,-894.5 -300.4,-1221.4 -46.7,-216.4 -93.7,-442.2 -121.1,-576.5 l -142.2,-31.9 c -96.8,949.3 116.5,1476.8 -136.8,1567.5 -251.1,90 -331.7,-626.8 -266.3,-913.9 27.7,-124.3 -23.4,-784.4 -105,-858.3 -299.5,654.4 -232.4,1261 -449.6,1288.9 -224.3,27.7 -126.5,-542.3 -15.5,-1119.7"
         style="fill:#fbd3a8;fill-opacity:1;fill-rule:nonzero;stroke:#0f0215;stroke-opacity:1;stroke-width:101.25000253;stroke-dasharray:none;paint-order:stroke fill markers;stroke-linejoin:round;stroke-linecap:round"
         id="path106" />
      <path
         d="m 15425.8,19578.3 c 276.2,376.9 878.6,409.4 952.7,411.4 -102.1,15.7 -196.2,66.9 -240.1,143.8 -605.6,-83.7 -712.6,-555.2 -712.6,-555.2"
         style="fill:#f8a364;fill-opacity:1;fill-rule:nonzero;stroke:#0f0215;stroke-opacity:1;stroke-width:101.25000253;stroke-dasharray:none;paint-order:stroke fill markers;stroke-linejoin:round;stroke-linecap:round"
         id="path108" />
      <path
         d="m 25673.7,26919 619.2,1065.3 0.2,156.5 -0.5,-557.4 c 472.8,698.4 700.7,1055.4 591.5,2170.3 l 99.9,-806.8 c 273.7,503.3 298.8,1202.1 102.4,1862.7 -231.6,659 -717.5,1283.6 -1206.1,1908 -432,1752.6 -1311.5,2036 -2226.7,2202.2 180.8,212.8 213.9,542.5 317.2,923.8 -191,-329.2 -324.2,-595.3 -604.7,-762.2 l 152.5,1067.5 c -117.3,-404.4 -258.3,-767.9 -469.2,-1010 -1658.5,2041.9 -3974,1516 -6690.8,-163.5 -1497.3,-903.6 -2898.9,-1644.3 -3874.4,-1658.8 350.4,-296.9 763.7,-463.8 1207.4,-568.2 -169,-227.8 -492.3,-302.9 -882.2,-312.1 l 900.9,-196.4 c -250.4,-175.3 -693.5,-319.4 -1227.5,-448.7 182.8,-150.1 511.4,-179 901,-157.3 -601.6,-483.7 -751.1,-1072.9 -713.4,-1705.7 364.9,489.5 713.4,888 1000.3,942.7 -681.6,-987 -874.3,-2082.1 609.8,-3965.8 l 1991.2,-2920.8 7036.2,-6.5 2365.8,2941.2"
         style="fill:#333333;fill-opacity:1;fill-rule:nonzero;stroke:none"
         id="path110" />
      <path
         d="m 15501,25298.1 c -881.2,0.8 -1442,1174.3 -1167.7,1931 66.3,183 197.3,338.7 376.2,415.3 318.9,136.4 606.3,-32.2 793.5,-158 l -2,-2188.3"
         style="fill:#fbd3a8;fill-opacity:1;fill-rule:nonzero;stroke:#0f0215;stroke-opacity:1;stroke-width:101.25000253;stroke-dasharray:none;paint-order:stroke fill markers;stroke-linejoin:round;stroke-linecap:round"
         id="path112" />
      <path
         d="m 15195.3,25777.1 c -550.8,117.7 -789.9,1456.3 -106.2,1367.8 l 390.8,-44.4 -1.3,-1372.6 -283.3,49.2"
         style="fill:#fbbd89;fill-opacity:1;fill-rule:nonzero;stroke:none"
         id="path114" />
      <path
         d="m 15462,27044.7 c -88,31.8 -177.5,59.9 -268.7,75.5 -90.5,13.6 -184.7,17 -268.8,-13.7 -83.7,-29.8 -153.7,-96 -192.1,-182 -39.1,-85.6 -55.1,-182.2 -61.4,-278.3 -3.3,96.3 2.3,194.8 34.2,289.3 30.7,94.4 101.8,180.3 196.6,225.1 94.8,45.6 200.7,51.7 300.8,47 100.7,-6.8 198.7,-27 295.1,-51.2 l -35.7,-111.7"
         style="fill:#603813;fill-opacity:1;fill-rule:nonzero;stroke:none"
         id="path116" />
      <path
         d="m 24519.1,25289.7 c 881.2,-0.8 1444.1,1171.7 1171.3,1928.9 -65.9,183.1 -196.6,339.1 -375.4,416 -318.7,137 -606.4,-31.1 -793.9,-156.5 l -2,-2188.4"
         style="fill:#fbd3a8;fill-opacity:1;fill-rule:nonzero;stroke:#0f0215;stroke-opacity:1;stroke-width:101.25000253;stroke-dasharray:none;paint-order:stroke fill markers;stroke-linejoin:round;stroke-linecap:round"
         id="path118" />
      <path
         d="m 24825.7,25768.2 c 551,116.7 792.6,1454.8 108.7,1367.6 l -390.8,-43.6 -1.3,-1372.6 283.4,48.6"
         style="fill:#fbbd89;fill-opacity:1;fill-rule:nonzero;stroke:none"
         id="path120" />
      <path
         d="m 24525.8,27148 c 96.5,24.1 194.5,44.1 295.2,50.7 100.2,4.6 206.1,-1.8 300.7,-47.6 94.8,-44.9 165.7,-131 196.2,-225.4 31.7,-94.6 37.2,-193.1 33.7,-289.3 -6.1,96.1 -22,192.7 -60.9,278.4 -38.2,86 -108.1,152.3 -191.8,182.3 -84,30.9 -178.1,27.6 -268.7,14.2 -91.2,-15.4 -180.8,-43.4 -268.9,-75 l -35.5,111.7"
         style="fill:#603813;fill-opacity:1;fill-rule:nonzero;stroke:none"
         id="path122" />
      <path
         d="m 24536.6,31835.2 -8981.9,8.2 c -1223.9,-5550.5 -351.6,-9202.3 4420.7,-9321.1 l 123.2,-0.1 c 4772.5,110 5651.6,3760.1 4438,9313"
         style="fill:#fbd3a8;fill-opacity:1;fill-rule:nonzero;stroke:#0f0215;stroke-opacity:1;stroke-width:101.25000253;stroke-dasharray:none;paint-order:stroke fill markers;stroke-linejoin:round;stroke-linecap:round"
         id="path124" />
      <path
         d="m 19948.5,25846.7 c 19.2,-3.9 38.4,0.6 57.2,6.1 347.3,101.4 397.2,-287.8 117.8,-322.9 -266.7,-24.2 -406.9,66 -492.7,181.7 -47,63.3 -10.3,157.3 67.9,167.3 70.1,9 161.4,-14.5 249.8,-32.2"
         style="fill:#f8a364;fill-opacity:1;fill-rule:nonzero;stroke:none"
         id="path126" />
      <path
         d="m 18561.5,27040.7 c -0.3,-352.5 -179.6,-638.1 -400.4,-637.9 -220.9,0.2 -399.6,286.2 -399.3,638.7 0.3,352.5 179.6,638 400.5,637.8 220.8,-0.2 399.5,-286.1 399.2,-638.6"
         style="fill:#333333;fill-opacity:1;fill-rule:nonzero;stroke:none"
         id="path128" />
      <path
         d="m 18381.5,27294.7 c -0.1,-122.2 -80.2,-221.2 -179,-221.1 -98.7,0.1 -178.6,99.2 -178.5,221.4 0.1,122.2 80.2,221.2 178.9,221.1 98.8,-0.1 178.7,-99.2 178.6,-221.4"
         style="fill:#ffffff;fill-opacity:1;fill-rule:nonzero;stroke:none"
         id="path130" />
      <path
         d="m 21412.9,27038.1 c -0.4,-352.5 178.4,-638.4 399.2,-638.7 220.9,-0.2 400.1,285.4 400.5,637.9 0.3,352.5 -178.5,638.5 -399.3,638.7 -220.8,0.2 -400.1,-285.4 -400.4,-637.9"
         style="fill:#333333;fill-opacity:1;fill-rule:nonzero;stroke:none"
         id="path132" />
      <path
         d="m 21593.4,27291.7 c -0.1,-122.2 79.8,-221.3 178.5,-221.4 98.7,-0.1 178.8,98.9 178.9,221.1 0.2,122.2 -79.8,221.3 -178.5,221.4 -98.7,0.1 -178.8,-98.9 -178.9,-221.1"
         style="fill:#ffffff;fill-opacity:1;fill-rule:nonzero;stroke:none"
         id="path134" />
      <path
         d="m 17988.4,25358.4 c -0.4,-384.5 -312.3,-695.8 -696.7,-695.4 -384.4,0.3 -695.8,312.2 -695.4,696.7 0.3,384.4 312.2,695.7 696.7,695.4 384.4,-0.4 695.7,-312.3 695.4,-696.7"
         style="fill:#ef8971;fill-opacity:1;fill-rule:nonzero;stroke:none"
         id="path136" />
      <path
         d="m 23664.1,25353.1 c -0.3,-384.4 -312.3,-695.8 -696.7,-695.4 -384.4,0.4 -695.7,312.3 -695.4,696.7 0.4,384.4 312.3,695.8 696.7,695.4 384.4,-0.3 695.8,-312.2 695.4,-696.7"
         style="fill:#ef8971;fill-opacity:1;fill-rule:nonzero;stroke:none"
         id="path138" />
      <path
         d="m 18301.5,27637.4 c 312.5,-139 559.8,112.9 417.9,389.9 -59.1,115.4 -177.3,185.7 -301.4,223.2 -342,103.1 -593.6,73 -724.3,-135.7 -47.1,-75.2 -59.9,-169.7 -22.9,-250.3 70.6,-154.1 266.7,-189.3 494.3,-194.6 47.3,-1.1 93.2,-13.3 136.4,-32.5"
         style="fill:#333333;fill-opacity:1;fill-rule:nonzero;stroke:none"
         id="path140" />
      <path
         d="m 21676.1,27637.4 c -312.5,-139 -559.8,112.9 -417.9,389.9 59.1,115.4 177.3,185.7 301.4,223.2 342,103.1 593.6,73 724.3,-135.7 47.1,-75.2 59.9,-169.7 22.9,-250.3 -70.6,-154.1 -266.7,-189.3 -494.3,-194.6 -47.3,-1.1 -93.2,-13.3 -136.4,-32.5"
         style="fill:#333333;fill-opacity:1;fill-rule:nonzero;stroke:none"
         id="path142" />
      <path
         d="m 24566.4,25520.4 c 0,0 -169.7,1822.7 -499.1,2887.4 l -44.7,-513 c -88.9,639.9 -423.8,1360.3 -888.4,2044.5 -273.7,403.2 -426.9,875.9 -426.4,1363.2 v 25.5 c -302.5,-470.7 -747.3,-658.1 -1313,-897.4 257.6,308.4 441.1,478.5 484.8,850.8 2.2,19.3 -21.6,28.9 -33.4,13.4 -229.9,-301.2 -614.1,-472.6 -1102.6,-548.7 200.2,259.8 389.1,436.1 374.1,754.9 -0.9,19.8 -26.4,27.2 -39.1,12 -921.2,-1106.4 -2004.6,-1521.7 -3289.9,-1365.7 l 318.9,495 c -1968.9,-382.3 -2219.7,-2553.2 -2570.9,-5083.7 -190.1,347 -389.9,935.4 -455.3,1897.7 l -377.5,4148.2 3815.1,2280 5066.6,-530.2 1960.7,-2177.9 -290.9,-3287.7 c 81.9,-1190.8 -689,-2368.3 -689,-2368.3"
         style="fill:#333333;fill-opacity:1;fill-rule:nonzero;stroke:none"
         id="path144" />
      <path
         d="m 20864.7,24150.1 c 3.4,24.7 -4.2,50.8 -22.9,70.1 -194.8,201.1 -517.2,313 -862.6,299.3 -313.3,-12.4 -588.2,-126.2 -735.2,-304.3 -29.7,-35.9 -24.6,-89.2 11.4,-118.9 4.3,-3.5 8.9,-6.5 13.6,-9 25.4,-16.2 61.8,-26.4 102.5,-26.4 76.6,0 138.7,36 138.7,80.5 0,21.3 -14.5,40.7 -38,55.1 127.2,89.3 312.2,146.2 513.7,154.2 241.3,9.6 467.2,-49.4 630.4,-160.9 -17.6,-13.5 -28.2,-30.2 -28.2,-48.4 0,-44.5 62.1,-80.5 138.7,-80.5 76.6,0 138.8,36 138.8,80.5 0,2.9 -0.3,5.8 -0.9,8.7"
         style="fill:#f8a364;fill-opacity:1;fill-rule:nonzero;stroke:none"
         id="path146" />
      <path
         d="m 12659.7,22502.1 c 0.5,-55.3 -43.9,-100.4 -99.1,-100.9 l -1080,-8.9 c -55.2,-0.5 -100.3,43.9 -100.8,99.2 -0.4,55.2 44,100.3 99.2,100.8 l 1079.9,8.9 c 55.2,0.5 100.4,-43.9 100.8,-99.1"
         style="fill:#ffffff;fill-opacity:0.511714;fill-rule:nonzero;stroke:none"
         id="path148" />
      <path
         d="m 13313.4,24371.6 9,-1079.9 c 0.4,-55.2 -44,-100.4 -99.2,-100.8 -55.2,-0.5 -100.4,43.9 -100.8,99.1 l -9,1080 c -0.4,55.2 44,100.3 99.2,100.8 55.2,0.4 100.4,-44 100.8,-99.2"
         style="fill:#ffffff;fill-opacity:0.511714;fill-rule:nonzero;stroke:none"
         id="path150" />
      <path
         d="m 12946.3,23016 c 0.1,-20 -5.7,-40.2 -18,-57.9 -31.6,-45.3 -93.9,-56.4 -139.2,-24.9 l -885.9,617.7 c -45.3,31.6 -56.4,93.9 -24.9,139.2 31.6,45.3 93.9,56.4 139.3,24.8 l 885.9,-617.6 c 27.6,-19.3 42.5,-50 42.8,-81.3"
         style="fill:#ffffff;fill-opacity:0.511714;fill-rule:nonzero;stroke:none"
         id="path152" />
    </g>
  </g>
</svg>
