<?xml version="1.0" encoding="UTF-8"?>
<!-- Created with Inkscape (http://www.inkscape.org/) -->
<svg viewBox="0 3 32 28" version="1.1" xmlns="http://www.w3.org/2000/svg" xmlns:cc="http://creativecommons.org/ns#" xmlns:dc="http://purl.org/dc/elements/1.1/" xmlns:rdf="http://www.w3.org/1999/02/22-rdf-syntax-ns#" xmlns:xlink="http://www.w3.org/1999/xlink">
 <defs>
  <linearGradient id="wrench-body" x1="304.76" x2="335.3" y1="64.295" y2="81.926" gradientTransform="matrix(-.83846 0 0 .83694 345.02 -36.009)" gradientUnits="userSpaceOnUse">
   <stop style="stop-color: #d3d7cf" offset="0"/>
   <stop style="stop-color: #babdb6" offset=".18304"/>
   <stop style="stop-color: #fff" offset=".31893"/>
   <stop style="stop-color: #babdb6" offset=".87644"/>
   <stop style="stop-color: #eeeeec" offset="1"/>
  </linearGradient>
  <linearGradient id="wrench-stroke" x1="301.32" x2="305.67" y1="52.787" y2="58.612" gradientTransform="matrix(-.83846 0 0 .83694 345.02 -36.009)" gradientUnits="userSpaceOnUse">
   <stop style="stop-color: #888a85" offset="0"/>
   <stop style="stop-color: #555753" offset="1"/>
  </linearGradient>
  <linearGradient id="wrench-top" x1="302.29" x2="308.65" y1="58.443" y2="60.768" gradientTransform="matrix(-.83846 0 0 .83694 344.85 -35.862)" gradientUnits="userSpaceOnUse">
   <stop style="stop-color: #babdb6" offset="0"/>
   <stop style="stop-color: #fff" offset="1"/>
  </linearGradient>
  <linearGradient id="wrench-outline" x1="326.6" x2="317.16" y1="75.575" y2="88.006" gradientTransform="matrix(-.83846 0 0 .83694 344.85 -35.862)" gradientUnits="userSpaceOnUse">
   <stop style="stop-color: #fff" offset="0"/>
   <stop style="stop-color: #fff; stop-opacity: 0" offset="1"/>
  </linearGradient>
  <linearGradient id="handle" x1="97.442" x2="90.221" y1="35.152" y2="35.079" gradientTransform="matrix(-.50611 -.50534 -.44267 .442 140.8 56.029)" gradientUnits="userSpaceOnUse">
   <stop style="stop-color: #f8b17e" offset="0"/>
   <stop style="stop-color: #e35d4f" offset=".26238"/>
   <stop style="stop-color: #c6262e" offset=".66347"/>
   <stop style="stop-color: #690b54" offset="1"/>
  </linearGradient>
  <linearGradient id="handle-stroke" x1="29.278" x2="36.001" y1="34.023" y2="27.273" gradientTransform="matrix(-.61515 0 0 .61463 96.444 5.9078)" gradientUnits="userSpaceOnUse">
   <stop style="stop-color: #791235" offset="0"/>
   <stop style="stop-color: #dd3b27" offset="1"/>
  </linearGradient>
  <linearGradient id="handle-fill" x1="-6.3078" x2="-9.7747" y1="44.229" y2="44.14" gradientTransform="matrix(-.28354 -.28352 -.48112 .4811 94.982 2.1946)" gradientUnits="userSpaceOnUse">
   <stop offset="0"/>
   <stop style="stop-opacity: 0" offset="1"/>
  </linearGradient>
  <linearGradient id="header" x1="33.579" x2="33.579" y1="5.7086" y2="16.323" gradientTransform="matrix(.81484 0 0 .4398 29.781 1.6552)" gradientUnits="userSpaceOnUse">
   <stop style="stop-color: #fdfdf8" offset="0"/>
   <stop style="stop-color: #d6d3b4" offset="1"/>
  </linearGradient>
  <linearGradient id="header-stroke" x1="16.916" x2="16.916" y1="7.0006" y2="14" gradientTransform="matrix(1 0 0 .66674 32.041 -.50096)" gradientUnits="userSpaceOnUse">
   <stop style="stop-color: #aeae94" offset="0"/>
   <stop style="stop-color: #626337" offset="1"/>
  </linearGradient>
  <linearGradient id="bg-top-shadow" x1="24.683" x2="24.683" y1="9.2417" y2="13.523" gradientTransform="matrix(.65203 0 0 .234 .35571 6.8374)" gradientUnits="userSpaceOnUse">
   <stop offset="0"/>
   <stop style="stop-opacity: 0" offset="1"/>
  </linearGradient>
  <linearGradient id="bg-top" x1="16.626" x2="20.055" y1="15.298" y2="24.628" gradientTransform="matrix(.65306 0 0 .69672 .32653 .84145)" gradientUnits="userSpaceOnUse">
   <stop style="stop-color: #fff" offset="0"/>
   <stop style="stop-color: #fff; stop-opacity: 0" offset="1"/>
  </linearGradient>
  <linearGradient id="bg-border" x1="12.579" x2="12.579" y1="-7.8074" y2="41.827" gradientTransform="matrix(.64388 0 0 .58921 .54601 3.4517)" gradientUnits="userSpaceOnUse">
   <stop style="stop-color: #fff" offset="0"/>
   <stop style="stop-color: #fff; stop-opacity: 0" offset="1"/>
  </linearGradient>
  <radialGradient id="bg-fill" cx="26.617" cy="-2.0645" r="23" gradientTransform="matrix(-1.2529e-8 -.72003 .96217 0 24.243 38.999)" gradientUnits="userSpaceOnUse">
   <stop style="stop-color: #d78ec1" offset="0"/>
   <stop style="stop-color: #c564be" offset=".26238"/>
   <stop style="stop-color: #9d3ea4" offset=".66094"/>
   <stop style="stop-color: #5e2c73" offset="1"/>
  </radialGradient>
  <linearGradient id="bg-stroke" x1="10.014" x2="10.014" y1="44.96" y2="2.8765" gradientTransform="matrix(.65957 0 0 .61045 .17026 2.3415)" gradientUnits="userSpaceOnUse">
   <stop style="stop-color: #650d5c" offset="0"/>
   <stop style="stop-color: #ad53a5" offset="1"/>
  </linearGradient>
 </defs>
 <g>
  <rect x=".5" y="4.5" width="31" height="25" rx="1.8" ry="1.8" style="fill: url(#bg-fill); fill-rule: evenodd; stroke: url(#bg-stroke); stroke-width: 1; stroke-linecap: round; stroke-linejoin: round"/>
  <rect x="1.5" y="5.5" width="29" height="23" rx="1.1" ry="1.1" style="fill: none; stroke: url(#bg-border); stroke-linecap: round; stroke-linejoin: round; opacity: .4"/>
  <path d="M 2.4 5 c -0.8 0 -1.4 0.7 -1.4 1.5 v 11.1 c 0 0.1 0 0.2 0.1 0.2 c 0.1 0.1 0.2 0.1 0.2 0.1 l 29.4 -5 c 0.2 0 0.3 -0.2 0.3 -0.3 v -6.2 c 0 -0.8 -0.6 -1.5 -1.4 -1.5 h -27.1 z" style="fill: url(#bg-top); fill-rule: evenodd; opacity: .2"/>
  <rect x="1" y="9" width="30" height="1" rx="0" ry="0" style="fill: url(#bg-top-shadow); fill-rule: evenodd; opacity: .2"/>
  <path d="M 2.6 4.5 s 27.1 0 27.1 0 c 1.1 0 1.8 0.8 1.8 1.8 v 2.2 h -31 v -2.2 c 0 -1 0.8 -1.8 2.1 -1.8 z" style="fill: url(#header); fill-rule: evenodd; stroke: url(#header-stroke); color: #000000"/>
  <rect x="4" y="18" width="9" height="7" rx=".75" ry=".5" style="fill: #ffffff; opacity: .9"/>
  <rect x="5" y="19" width="7" height="1" style="opacity: .3"/>
  <rect x="16" y="10" width="12" height="11" rx=".75" ry=".75" style="fill: #ffffff; opacity: .9"/>
  <rect x="17" y="11" width="10" height="1" style="opacity: .3"/>
  <g transform="matrix(-1,0,0,1,98,-3.8)">
   <path d="M 89.1 7.3 c 0.1 0 0.2 0 0.3 0.1 c 0.1 0.1 0.1 0.3 0 0.4 l -1.9 3.4 c -0.2 0.3 -0.1 0.7 0.2 1.1 c 0.3 0.4 0.7 0.8 1.3 1.1 c 0.6 0.3 1.2 0.5 1.7 0.5 c 0.5 0 0.9 -0.1 1 -0.4 l 1.9 -3.4 c 0.1 -0.1 0.1 -0.1 0.2 -0.2 c 0.1 0 0.2 0 0.3 0.1 c 0 0 0.1 0.1 0.1 0.2 c 0.4 1.6 0.2 3.4 -0.5 4.6 c -0.9 1.7 -2.9 2.5 -4.8 2.2 c -0.8 0.3 -2.1 0.7 -3.4 2 l -2.6 -2.7 c 1.1 -1.1 1.6 -2.1 1.9 -2.9 c -0.3 -1 -0.1 -2.1 0.4 -3.1 c 0.7 -1.2 2.1 -2.3 3.7 -2.9 c 0 0 0.1 0 0.1 0 z" style="fill: url(#wrench-body); fill-rule: evenodd; stroke: url(#wrench-stroke);"/>
   <path d="M 89 7.7 c 0 0 0 0 0 0 l -1.9 3.4 c -0.3 0.5 -0.1 1 0.2 1.4 c 0.3 0.5 0.8 0.9 1.4 1.2 c 0.6 0.3 1.3 0.5 1.8 0.5 c 0.5 0 1.1 -0.1 1.3 -0.6 l 1.9 -3.4 c 0 0 0 0 0 0 c 0 0 0 0 0 0 c 0.3 1.5 0.2 3.2 -0.5 4.4 c -0.9 1.6 -2.7 2.3 -4.5 2 c -1.8 -0.3 -3.3 -1.9 -3.7 -3.4 c -0.2 -1 -0.1 -2 0.4 -2.9 c 0.6 -1.1 2 -2.2 3.5 -2.7 l 0 0 z" style="fill: url(#wrench-top); fill-rule: evenodd; enable-background: new"/>
   <path d="M 88 8.7 l -1.3 2.3 c -0.4 0.6 -0.1 1.3 0.2 1.8 c 0.4 0.5 0.9 1 1.5 1.3 c 0.7 0.4 1.4 0.6 2 0.6 c 0.6 0 1.3 -0.2 1.7 -0.8 l 1.3 -2.4 c 0.1 1.1 -0.1 2.2 -0.5 3 c -0.8 1.4 -2.5 2.1 -4.1 1.8 c -0.1 0 -0.2 0 -0.4 0 c -0.9 0.3 -2 0.9 -3.3 2.2 l -0.6 0.6 l -1.9 -1.9 l 0.6 -0.6 c 1.2 -1.2 1.8 -2.2 2.2 -3 c 0.1 -0.1 0.1 -0.3 0 -0.4 c -0.2 -0.9 -0.1 -1.8 0.3 -2.7 c 0.4 -0.7 1.3 -1.4 2.2 -2 z" style="fill: none; stroke: url(#wrench-outline); stroke-linecap: round; enable-background: new; stroke-dashoffset: .3612; stroke-width: .7"/>
   <path d="M 85.3 15.9 c 0.1 0 0.2 0 0.2 0.1 l 0.4 0.4 c 0.2 0.2 0.1 0.7 -0.4 1.2 l -1.3 1.3 l -1.2 -1.2 l 1.3 -1.3 c 0.3 -0.3 0.7 -0.5 0.9 -0.5 z" style="opacity: .08"/>
   <path d="M 85.7 18.7 l -13.1 13.9 c -0.9 0.9 -2.3 0.7 -3.3 -0.2 c -1 -1 -1.1 -2.4 -0.2 -3.3 l 14 -13.1 l 2.7 2.7 z m -13.7 11.1 c -0.5 -0.5 -1.3 -0.5 -1.8 0 c -0.5 0.5 -0.5 1.3 0 1.8 c 0.5 0.5 1.3 0.5 1.8 0 c 0.5 -0.5 0.5 -1.3 0 -1.8 z" style="fill: url(#handle); stroke: url(#handle-stroke); stroke-linecap: round; stroke-linejoin: round; enable-background: new; stroke-dashoffset: .7; stroke-width: .99963"/>
   <path d="M 82.8 19 c -0.3 -0.3 -0.9 -0.2 -1.3 0.2 l -8.3 7.6 c -0.4 0.4 -0.1 1.4 0.2 1.7 c 0.3 0.3 1.3 0.6 1.7 0.2 l 7.6 -8.3 c 0.4 -0.4 0.5 -1 0.2 -1.3 z" style="fill: url(#handle-fill); opacity: .23106"/>
  </g>
 </g>
</svg>
