<svg
   version="1.1"
   id="svg2"
   viewBox="0 0 2130.8054 1954.2277"
   sodipodi:docname="alignment.svg"
   inkscape:version="1.2.2 (1:1.2.2+202305151914+b0a8486541)"
   xmlns:inkscape="http://www.inkscape.org/namespaces/inkscape"
   xmlns:sodipodi="http://sodipodi.sourceforge.net/DTD/sodipodi-0.dtd"
   xmlns:xlink="http://www.w3.org/1999/xlink"
   xmlns="http://www.w3.org/2000/svg"
   xmlns:svg="http://www.w3.org/2000/svg">
  <defs
     id="defs6">
    <linearGradient
       inkscape:collect="always"
       id="linearGradient3398">
      <stop
         style="stop-color:#008115;stop-opacity:1;"
         offset="0"
         id="stop3394" />
      <stop
         style="stop-color:#c20a0a;stop-opacity:1;"
         offset="1"
         id="stop3396" />
    </linearGradient>
    <linearGradient
       inkscape:collect="always"
       id="linearGradient3390">
      <stop
         style="stop-color:#0b8c00;stop-opacity:1;"
         offset="0"
         id="stop3386" />
      <stop
         style="stop-color:#ec0202;stop-opacity:1;"
         offset="1"
         id="stop3388" />
    </linearGradient>
    <linearGradient
       inkscape:collect="always"
       id="linearGradient2612">
      <stop
         style="stop-color:#008108;stop-opacity:1;"
         offset="0"
         id="stop2608" />
      <stop
         style="stop-color:#b01414;stop-opacity:1;"
         offset="1"
         id="stop2610" />
    </linearGradient>
    <linearGradient
       inkscape:collect="always"
       xlink:href="#linearGradient2612"
       id="linearGradient2614"
       x1="5672.5298"
       y1="7169.9399"
       x2="10403.948"
       y2="7169.9399"
       gradientUnits="userSpaceOnUse" />
    <linearGradient
       inkscape:collect="always"
       xlink:href="#linearGradient3390"
       id="linearGradient3392"
       x1="6215.7172"
       y1="11260.806"
       x2="9795.155"
       y2="11260.806"
       gradientUnits="userSpaceOnUse" />
    <linearGradient
       inkscape:collect="always"
       xlink:href="#linearGradient3398"
       id="linearGradient3400"
       x1="5303.0872"
       y1="3395.9678"
       x2="10654.832"
       y2="3395.9678"
       gradientUnits="userSpaceOnUse" />
  </defs>
  <g
     id="g10"
     inkscape:groupmode="layer"
     inkscape:label="Page 1"
     transform="matrix(1.3333333,0,0,-1.3333333,-1.0741959e-4,1954.2276)">
    <g
       id="g12"
       transform="scale(0.1)">
      <path
         d="m 5825.05,7860.21 h 4426.298 l 152.6,-1380.54 H 5672.53 l 152.52,1380.54"
         style="fill:url(#linearGradient2614);fill-opacity:1;fill-rule:nonzero;stroke:none"
         id="path14"
         sodipodi:nodetypes="ccccc" />
      <path
         style="fill:#b2ffca;fill-opacity:1;fill-rule:nonzero;stroke:none"
         d="m 3896.09,14209.1 c -81.64,9.2 -163.17,13.6 -244.17,13.6 -493.07,0 -968.14,-166.1 -1358.68,-478.9 -454.71,-364.2 -740.13,-883.6 -804.16,-1462.5 L 447.414,2854.5 C 315.395,1659.2 1180.14,579.602 2375.26,447.5 h 0.22 c 1194.27,-131.801 2274.71,732.8 2406.95,1928.1 l 1041.5,9426.6 c 131.98,1195.3 -732.77,2274.9 -1927.84,2406.9"
         id="path2000" />
      <path
         style="fill:#ffffff;fill-opacity:1;fill-rule:nonzero;stroke:none"
         d="m 4130.42,2117.7 c -40.07,-32.2 -87.92,-47.7 -135.39,-47.7 -63.82,0 -126.77,27.8 -169.51,81.4 L 2725.94,3523.9 1330.8,2425.6 c -93.89,-73.7 -230.8,-57.8 -304.71,36.5 -73.953,94 -57.844,230.5 36.42,304.7 l 1564.07,1231.3 c 93.66,73.3 229.22,57.9 303.41,-34.9 L 4164.1,2422.6 c 75.04,-93.4 59.95,-230.1 -33.68,-304.9 z"
         id="path1998" />
      <path
         style="fill:#ffffff;fill-opacity:1;fill-rule:nonzero;stroke:none"
         d="m 4439.16,4913.11 c -40.08,-32.23 -87.93,-47.69 -135.41,-47.69 -63.8,0 -126.69,27.76 -169.51,81.37 L 3034.88,6319.26 1639.74,5220.98 c -93.88,-73.96 -230.74,-57.84 -304.7,36.48 -73.96,94.07 -57.85,230.53 36.42,304.7 l 1564.07,1231.36 c 93.87,73.3 229.22,57.84 303.4,-34.98 L 4472.82,5218.03 c 75.05,-93.45 60.02,-230.12 -33.66,-304.92 z"
         id="path1996" />
      <path
         style="fill:#ffffff;fill-opacity:1;fill-rule:nonzero;stroke:none"
         d="m 4748.11,7708.5 c -40.08,-32.23 -87.93,-47.7 -135.41,-47.7 -63.82,0 -126.7,27.77 -169.51,81.38 L 3343.83,9114.65 1948.47,8016.37 c -93.83,-73.75 -230.74,-57.62 -304.7,36.47 -73.96,94.05 -57.85,230.52 36.42,304.7 l 1564.29,1231.32 c 93.65,73.55 229.28,57.88 303.44,-34.94 l 1233.85,-1540.5 c 75.04,-93.46 59.99,-230.12 -33.66,-304.92 z"
         id="path1994" />
      <path
         style="fill:#ffffff;fill-opacity:1;fill-rule:nonzero;stroke:none"
         d="m 5057.06,10503.9 c -40.02,-32.2 -87.94,-47.7 -135.41,-47.7 -63.83,0 -126.7,27.7 -169.51,81.4 L 3652.55,11910.3 2257.64,10811.8 c -94.49,-74 -230.53,-57.7 -304.92,36.4 -73.96,94.1 -57.85,230.5 36.25,304.7 l 1564.23,1231.6 c 93.68,73.5 229.29,58 303.47,-35 l 1234.05,-1540.7 c 75.04,-93.4 59.99,-230.1 -33.66,-304.9 z"
         id="path1992" />
      <path
         style="fill:#ffc6c6;fill-opacity:1;fill-rule:nonzero;stroke:none"
         d="m 14483.169,12281.3 c -123.1,1113.9 -1069.9,1941.2 -2165.8,1941.2 -79.7,0 -160.2,-4.2 -241.2,-13.4 -1195.3,-132 -2060,-1211.6 -1928,-2406.9 l 1041.7,-9426.8 c 64,-578.9 349.4,-1098.3 804.1,-1462.498 454.8,-364.101 1024.1,-529.402 1602.6,-465.402 h 0.2 c 579,64 1098.3,349.5 1462.6,804.2 364,454.5 529.3,1023.7 465.3,1602.6 z"
         id="path16" />
      <path
         style="fill:#033d0b;fill-opacity:1;fill-rule:nonzero;stroke:none"
         d="m 5090.74,10808.8 c 75.02,-93.4 59.99,-230.1 -33.68,-304.9 -40.02,-32.2 -87.94,-47.7 -135.41,-47.7 -63.8,0 -126.7,27.8 -169.51,81.4 L 3652.58,11910.3 2257.64,10811.8 c -94.49,-74 -230.53,-57.6 -304.92,36.4 -73.96,94.1 -57.84,230.6 36.26,304.7 l 1564.22,1231.6 c 93.68,73.5 229.29,58.1 303.47,-35 l 1234.07,-1540.7"
         id="path2028" />
      <path
         style="fill:#033d0b;fill-opacity:1;fill-rule:nonzero;stroke:none"
         d="m 3547.94,9553.92 c -74.18,92.82 -209.79,108.51 -303.46,34.96 L 1680.19,8357.56 c -94.26,-74.16 -110.37,-210.65 -36.41,-304.7 73.96,-94.09 210.87,-110.22 304.7,-36.47 L 3343.83,9114.67 4443.19,7742.2 c 42.81,-53.61 105.71,-81.38 169.51,-81.38 47.48,0 95.35,15.47 135.41,47.7 93.68,74.78 108.7,211.46 33.68,304.92 z"
         id="path2026" />
      <path
         style="fill:#033d0b;fill-opacity:1;fill-rule:nonzero;stroke:none"
         d="m 3238.93,6758.54 c -74.16,92.82 -209.53,108.28 -303.4,34.96 L 1371.46,5562.18 c -94.26,-74.16 -110.37,-210.65 -36.41,-304.7 73.96,-94.32 210.81,-110.42 304.7,-36.48 L 3034.88,6319.29 4134.24,4946.82 c 42.82,-53.62 105.71,-81.38 169.51,-81.38 47.48,0 95.35,15.46 135.41,47.69 93.68,74.78 108.71,211.47 33.69,304.92 z"
         id="path2024" />
      <path
         style="fill:#033d0b;fill-opacity:1;fill-rule:nonzero;stroke:none"
         d="m 2929.99,3963.2 c -74.17,92.8 -209.73,108.2 -303.41,34.9 L 1062.52,2766.8 c -94.266,-74.2 -110.379,-210.7 -36.42,-304.7 73.91,-94.3 210.82,-110.2 304.7,-36.5 L 2725.94,3523.9 3825.52,2151.4 c 42.74,-53.6 105.71,-81.3 169.51,-81.3 47.47,0 95.32,15.4 135.41,47.6 93.61,74.8 108.7,211.5 33.68,305 z"
         id="path2022" />
      <path
         id="path2014"
         style="fill:#303147;fill-opacity:1;fill-rule:nonzero;stroke:none"
         d="m 15533.486,2854.3 -1041.5,9427 c -123.1,1114 -1069.9,1941.2 -2165.8,1941.2 -79.7,0 -160.2,-4.2 -241.2,-13.3 -1195.3,-132.1 -2060,-1211.7 -1928,-2407 l 1041.7,-9426.8 c 64,-578.9 349.4,-1098.3 804.1,-1462.498 454.8,-364.004 1024.1,-529.402 1602.6,-465.3 h 0.2 c 579,63.898 1098.3,349.398 1462.6,804.098 364,454.5 529.3,1023.7 465.3,1602.6 z m -5225,3625.37 -152.6,1380.54 H 5825.08 L 5672.53,6479.67 Z M 5823.93,11802.2 c 131.98,1195.3 -732.77,2274.9 -1927.84,2407 -81.64,9.1 -163.17,13.5 -244.17,13.5 -493.07,0 -968.14,-166.1 -1358.68,-478.9 -454.71,-364.2 -740.13,-883.6 -804.15,-1462.5 L 447.422,2854.5 C 315.398,1659.2 1180.15,579.602 2375.28,447.602 h 0.2 C 3569.75,315.801 4650.19,1180.3 4782.43,2375.6 Z M 15406.786,980.301 c -436.5,-545 -1059.3,-887.5002 -1753.7,-964.1994 C 13555.386,5.30078 13457.786,0 13360.686,0 c -591.2,0 -1161,199.199 -1629.3,574.301 -545,436.499 -887.4,1059.299 -964.1,1753.599 l -410.9,3717.84 H 5624.61 L 5213.83,2327.9 C 5066.19,991.902 3930.79,0.199219 2617.01,0.199219 c -95.76,0 -192.17,5.101561 -289.43,15.902381 C 894.723,174.402 -142.324,1469.1 15.9609,2902 L 1057.68,12328.8 c 76.7,694.4 419.11,1317.1 964.11,1753.6 545.22,436.6 1227.57,634.3 1921.93,558.2 1432.86,-158.3 2469.92,-1453 2311.63,-2885.9 L 5873.04,8294.18 h 4234.946 l -382.3999,3460.52 c -158.3,1432.9 878.6999,2727.6 2311.7999,2885.9 1430.1,159.1 2727.6,-878.5 2886,-2311.6 l 1041.5,-9427 c 76.7,-694 -121.4,-1376.5 -558.1,-1921.699 z"
         sodipodi:nodetypes="ccscccccccccccccccscccccccccscccccsccccccccccccc" />
      <path
         style="fill:#4c1e15;fill-opacity:1;fill-rule:nonzero;stroke:none"
         d="m 12578.352,10976.8 -1395,1098.5 c -94.4,74 -230.5,57.6 -304.9,-36.4 -73.9,-94.1 -57.8,-230.6 36.3,-304.7 l 1564.2,-1231.6 c 93.4,-73.5 229.1,-58.1 303.5,35 l 1233.8,1540.7 c 75.1,93.4 60,230.1 -33.7,304.9 -40,32.2 -87.9,47.7 -135.4,47.7 -63.8,0 -126.7,-27.8 -169.5,-81.4 z"
         id="path2012" />
      <path
         style="fill:#4c1e15;fill-opacity:1;fill-rule:nonzero;stroke:none"
         d="m 12887.06,8181.3791 -1395.1,1098.28 c -94.1,73.75 -230.8,57.62 -304.7,-36.47 -74,-94.05 -57.9,-230.54 36.4,-304.7 l 1564,-1231.32 c 93.5,-73.55 229.1,-57.86 303.5,34.96 l 1234.1,1540.48 c 75,93.46 60,230.14 -33.7,304.92 -40.1,32.23 -87.9,47.7 -135.4,47.7 -63.6,0 -126.7,-27.77 -169.5,-81.38 z"
         id="path2010" />
      <path
         style="fill:#4c1e15;fill-opacity:1;fill-rule:nonzero;stroke:none"
         d="m 13196.029,5385.9021 -1395.2,1098.29 c -94.1,73.94 -230.7,57.84 -304.7,-36.48 -73.9,-94.05 -57.8,-230.54 36.5,-304.7 l 1564,-1231.32 c 93.3,-73.32 229,-57.86 303.4,34.96 l 1233.9,1540.49 c 75.1,93.45 60,230.14 -33.6,304.92 -40.1,32.23 -88,47.69 -135.4,47.69 -63.9,0 -126.8,-27.76 -169.6,-81.38 z"
         id="path2008" />
      <path
         style="fill:#4c1e15;fill-opacity:1;fill-rule:nonzero;stroke:none"
         d="m 13405.66,2116.3607 c 93.4,-73.3 229,-57.9 303.4,34.9 l 1233.9,1540.5 c 75,93.5 59.9,230.2 -33.7,305 -40.1,32.2 -87.9,47.6 -135.4,47.6 -63.8,0 -126.7,-27.7 -169.5,-81.3 l -1099.4,-1372.5 -1395.1,1098.3 c -94.1,73.7 -230.6,57.8 -304.7,-36.5 -74,-94 -57.8,-230.5 36.4,-304.7 z"
         id="path2006" />
      <path
         style="fill:url(#linearGradient3392);fill-opacity:1;fill-rule:nonzero;stroke:#11112c;stroke-opacity:1;stroke-width:118.74750717;stroke-dasharray:none;paint-order:stroke fill markers"
         d="m 6223.0172,11219.8 c 2.23,-11.3 3.66,-22.3 7.64,-33.2 2.04,-5.6 3.72,-11 6.18,-16.4 4.62,-10 12.14,-18.3 18.37,-27.7 4.77,-7.3 6.67,-15.6 12.41,-22.4 1.76,-2.1 4.35,-2.7 6.11,-4.6 4.29,-4.7 8.5,-9.1 13.23,-13.3 2.09,-2 2.9,-4.6 5.03,-6.5 l 1118.86,-953.3 c 40.87,-34.8 90.88,-51.7 140.67,-51.7 61.22,0 122.29,25.9 165.11,76.3 77.77,91.1 66.92,228.2 -24.38,305.8 l -670.21,571 h 1059.1276 907.4884 L 8318.347,10473 c -91.3008,-77.8 -102.101,-214.7 -24.5002,-306 43.0004,-50.4 104.001,-76.3 165.3014,-76.3 49.8006,0 99.801,16.9 140.7014,51.7 l 1119.0054,953.1 c 2.3,2 3.2,4.8 5.4,6.9 4.5,4.1 8.5,8.3 12.7,12.8 1.9,2 4.6,2.7 6.5,4.9 5.8,6.8 7.6,15.3 12.5,22.6 6.2,9.3 13.5,17.6 18.1,27.7 2.5,5.2 4.1,10.6 6.1,16.1 4,11 5.5,21.9 7.7,33.3 2.2,11 5.2,21.5 5.6,32.6 0.1,3 1.7,5.5 1.7,8.4 0,3 -1.6,5.4 -1.7,8.4 -0.4,11.2 -3.4,21.5 -5.6,32.5 -2.2,11.4 -3.7,22.4 -7.7,33.4 -2,5.5 -3.6,10.9 -6.1,16.2 -4.6,10 -11.9,18.3 -18.1,27.6 -4.9,7.3 -6.7,15.7 -12.5,22.6 -2,2.3 -4.8,3.2 -6.8,5.4 -4,4.4 -8,8.3 -12.4,12.4 -2.2,2 -3.1,4.8 -5.4,6.8 l -1119.0054,953.1 c -91.2008,77.3 -228.1022,67 -306.0028,-24.6 -77.6008,-91.3 -66.8006,-228.2 24.5002,-306 l 670.3062,-570.8 H 8081.1648 7022.0372 l 670.21,571.1 c 91.3,77.5 102.15,214.6 24.38,305.7 -77.55,91.6 -214.68,101.9 -305.78,24.6 l -1118.86,-953.3 c -2.13,-1.9 -2.94,-4.5 -5.03,-6.4 -4.58,-4.3 -8.72,-8.4 -12.96,-13 -1.87,-2.1 -4.56,-2.9 -6.38,-5 -5.74,-6.8 -7.64,-15.2 -12.41,-22.4 -6.23,-9.4 -13.75,-17.7 -18.37,-27.7 -2.53,-5.4 -4.14,-10.9 -6.18,-16.5 -3.98,-10.9 -5.41,-21.8 -7.64,-33 -2.13,-11.1 -5.14,-21.5 -5.56,-32.7 -0.18,-2.9 -1.74,-5.4 -1.74,-8.4 0,-3 1.56,-5.5 1.74,-8.4 0.42,-11.2 3.43,-21.6 5.56,-32.6 z"
         id="path2004" />
      <path
         style="fill:url(#linearGradient3400);fill-opacity:1;fill-rule:nonzero;stroke:#11112c;stroke-opacity:1;stroke-width:118.74750717;stroke-dasharray:none;paint-order:stroke fill markers"
         d="m 10647.632,3436.9 c -2.2,11.4 -3.7,22.4 -7.8,33.4 -2,5.5 -3.6,10.8 -6,16.1 -4.6,10 -12,18.3 -18.2,27.6 -4.8,7.3 -6.7,15.8 -12.5,22.6 -1.9,2.3 -4.8,3.1 -6.8,5.4 -4.1,4.4 -8,8.3 -12.4,12.4 -2.2,2 -3.1,4.9 -5.4,6.8 l -1119.0005,953.1 c -91.3,77.6 -228,67 -306,-24.6 -77.6,-91.3 -66.8,-228.2 24.6,-306 l 670.3,-570.8 H 6109.3872 l 670.21,571.1 c 91.36,77.5 102.17,214.6 24.4,305.7 -77.58,91.6 -214.7,102.2 -305.78,24.6 L 5379.4072,3561 c -2.16,-1.9 -3.02,-4.5 -5.04,-6.4 -4.62,-4.2 -8.76,-8.3 -13,-13 -1.89,-2 -4.51,-2.8 -6.34,-5 -5.81,-6.8 -7.63,-15.2 -12.47,-22.4 -6.23,-9.4 -13.75,-17.7 -18.37,-27.8 -2.47,-5.3 -4.07,-10.7 -6.12,-16.3 -4.02,-10.9 -5.48,-21.9 -7.68,-33.1 -2.15,-11.1 -5.21,-21.5 -5.58,-32.7 -0.16,-3 -1.72,-5.4 -1.72,-8.4 0,-2.9 1.56,-5.4 1.72,-8.4 0.37,-11.2 3.43,-21.6 5.58,-32.6 2.2,-11.3 3.66,-22.3 7.68,-33.2 2.05,-5.5 3.65,-11 6.12,-16.3 4.62,-10.1 12.14,-18.4 18.37,-27.8 4.84,-7.2 6.66,-15.6 12.47,-22.4 1.72,-2.1 4.29,-2.6 6.12,-4.6 4.29,-4.7 8.49,-9 13.22,-13.4 2.02,-1.9 2.88,-4.5 5.04,-6.3 l 1118.81,-953.4 c 40.92,-34.8 90.86,-51.7 140.71,-51.7 61.23,0 122.25,25.9 165.07,76.3 77.77,91.1 66.96,228.2 -24.4,305.8 l -670.14,571 h 3738.8743 l -670.2,-570.8 c -91.4,-77.8 -102.2,-214.7 -24.6,-306 43,-50.4 104,-76.3 165.3,-76.3 49.8,0 99.8,16.9 140.7,51.7 l 1119.0005,953.1 c 2.3,2 3.2,4.8 5.4,6.9 4.5,4.1 8.5,8.3 12.7,12.8 1.9,2.1 4.7,2.7 6.5,4.9 5.8,6.9 7.7,15.3 12.5,22.6 6.2,9.4 13.6,17.7 18.2,27.7 2.4,5.3 4,10.6 6,16 4.1,11.1 5.6,22 7.8,33.5 2.1,11 5.1,21.4 5.6,32.6 0.1,2.9 1.6,5.4 1.6,8.3 0,3 -1.5,5.4 -1.6,8.3 -0.5,11.3 -3.5,21.6 -5.6,32.7 z"
         id="path18"
         sodipodi:nodetypes="cccccccccccccccccccccccccsccccccccccsccccccsccccccccccscc" />
    </g>
  </g>
</svg>
