<?xml version="1.0" encoding="UTF-8" standalone="no"?>
<!-- Created with Inkscape (http://www.inkscape.org/) -->

<svg
   version="1.1"
   id="svg2"
   viewBox="0 0 1261.7018 1510.3445"
   sodipodi:docname="dead day.svg"
   inkscape:version="1.2.2 (1:1.2.2+202305151914+b0a8486541)"
   xmlns:inkscape="http://www.inkscape.org/namespaces/inkscape"
   xmlns:sodipodi="http://sodipodi.sourceforge.net/DTD/sodipodi-0.dtd"
   xmlns="http://www.w3.org/2000/svg"
   xmlns:svg="http://www.w3.org/2000/svg">
  <g
     id="g10"
     inkscape:groupmode="layer"
     inkscape:label="Page 1"
     transform="matrix(1.3333333,0,0,-1.3333333,-769.15038,2155.1722)">
    <rect
       style="fill:#ffd6a1;fill-opacity:1;stroke:#595959;stroke-width:14.4998;stroke-linecap:round;stroke-linejoin:round;stroke-opacity:0.209758;paint-order:stroke fill markers"
       id="rect5526"
       width="911.49243"
       height="995.17395"
       x="592.47614"
       y="-1497.1152"
       transform="scale(1,-1)"
       rx="10.015728"
       ry="19.075521" />
    <g
       id="g4313"
       transform="matrix(0.1,0,0,0.1,425.42587,297.03541)">
      <path
         style="fill:#c24a00;fill-opacity:1;fill-rule:nonzero;stroke:#2d1407;stroke-width:462.247;stroke-linecap:round;stroke-dasharray:462.247, 924.495;stroke-dashoffset:0;stroke-opacity:1;paint-order:stroke fill markers"
         d="m 9245.96,3411.05 c -73.05,-116.04 -196.35,-191.98 -334.78,-220.01 45.5,-119.59 37.17,-252.78 -35.88,-368.83 -140.74,-223.59 -467.89,-298.75 -730.71,-167.89 -262.81,130.86 -361.78,418.19 -221.05,641.77 L 5931,4288.18 3959.26,3312.49 c 140.08,-223.91 40.27,-511.01 -222.94,-641.26 -263.2,-130.23 -590.13,-54.31 -730.21,169.6 -72.7,116.22 -80.64,249.42 -34.79,368.92 -138.34,28.35 -261.42,104.58 -334.13,220.8 -140.08,223.9 -40.26,511 222.94,641.25 263.21,130.24 590.13,54.31 730.21,-169.6 7.78,-12.43 14.67,-25.1 20.98,-37.88 L 5201.7,4651.3 3716.51,5390.78 c -140.73,-223.58 -467.88,-298.75 -730.7,-167.89 -262.82,130.85 -361.79,418.18 -221.05,641.77 73.05,116.04 196.35,191.99 334.78,220.01 -45.5,119.6 -37.17,252.79 35.88,368.84 140.74,223.58 467.89,298.75 730.7,167.89 262.83,-130.86 361.79,-418.19 221.05,-641.77 -7.81,-12.42 -16.32,-24.28 -25.24,-35.77 l 1870.14,-931.15 1896.61,938.52 c -8.89,11.51 -17.36,23.4 -25.14,35.83 -140.07,223.91 -40.26,511.01 222.94,641.26 263.21,130.24 590.13,54.31 730.21,-169.6 72.7,-116.22 80.64,-249.42 34.79,-368.92 138.34,-28.35 261.43,-104.58 334.14,-220.8 140.07,-223.9 40.26,-511 -222.94,-641.25 -263.22,-130.24 -590.14,-54.31 -730.22,169.6 L 6661.36,4649.6 8273.12,3847.1 c 6.34,12.77 13.27,25.42 21.09,37.84 140.73,223.58 467.88,298.75 730.7,167.89 262.82,-130.86 361.79,-418.19 221.05,-641.78 z"
         id="path1938" />
      <path
         id="path1940"
         style="fill:#c24a00;fill-opacity:1;fill-rule:nonzero;stroke:#2d1407;stroke-width:462.247;stroke-linecap:round;stroke-dasharray:462.247, 924.495;stroke-dashoffset:0;stroke-opacity:1;paint-order:stroke fill markers"
         d="m 6754.98,7041.83 c 289.81,0 524.76,240.2 524.76,536.5 0,296.29 -234.95,536.49 -524.76,536.49 -289.82,0 -524.77,-240.2 -524.77,-536.49 0,-296.3 234.95,-536.5 524.77,-536.5 M 5961.11,9290 c 1055.23,0 1910.66,-730.02 1910.66,-1630.56 0,-579.41 -354.44,-1087.86 -888.06,-1377.07 v -489.8 c 0,-155.97 -145.31,-283.59 -322.92,-283.59 v 434.31 H 6472.41 V 5508.98 H 6055.3 v 434.31 h -188.38 v -434.31 h -417.11 v 434.31 h -188.37 v -434.31 h -80.74 c -177.6,0 -322.92,127.62 -322.92,283.59 v 536.07 c -488.3,295.38 -807.32,781.14 -807.32,1330.8 0,900.54 855.43,1630.56 1910.65,1630.56 z M 5247.98,7041.83 c 289.81,0 524.76,240.2 524.76,536.5 0,296.29 -234.95,536.49 -524.76,536.49 -289.82,0 -524.76,-240.2 -524.76,-536.49 0,-296.3 234.94,-536.5 524.76,-536.5 m 1089.88,-587.59 -376.75,536.5 -269.1,-536.5 z" />
    </g>
    <path
       style="fill:#ffd6a1;stroke:#1e2d20;stroke-width:0.75px;stroke-linecap:butt;stroke-linejoin:miter;stroke-opacity:1;fill-opacity:1"
       d="m 1277.595,650.31347 -1.8209,-130.10767 159.2161,140.26372 z"
       id="path8022" />
    <g
       id="g12"
       transform="matrix(0.1,0,0,0.1,0,0.8389333)">
      <path
         d="m 11734.9,14972.2 h 2413.5 c 165.3,0 300.6,-135.3 300.6,-300.7 v -8027.8 -2.8"
         style="fill:none;stroke:#1e2d20;stroke-width:373.984;stroke-linecap:round;stroke-linejoin:round;stroke-miterlimit:10;stroke-dasharray:none;stroke-opacity:1"
         id="path16" />
      <path
         d="M 7892.42,14972.2 H 11030.9"
         style="fill:none;stroke:#1e2d20;stroke-width:373.984;stroke-linecap:round;stroke-linejoin:round;stroke-miterlimit:10;stroke-dasharray:none;stroke-opacity:1"
         id="path18" />
      <path
         d="m 5956.5,6209.2 -0.88,8462.3 c 0,165.4 135.29,300.7 300.65,300.7 h 956.62"
         style="fill:none;stroke:#1e2d20;stroke-width:373.984;stroke-linecap:round;stroke-linejoin:round;stroke-miterlimit:10;stroke-dasharray:none;stroke-opacity:1"
         id="path20" />
      <path
         d="m 5955.62,6701.6 v 150.5"
         style="fill:none;stroke:#595959;stroke-width:373.984;stroke-linecap:round;stroke-linejoin:round;stroke-miterlimit:10;stroke-dasharray:none;stroke-opacity:1"
         id="path22" />
      <path
         d="M 12697.8,5028.6 H 6256.27 c -165.36,0 -300.65,135.3 -300.65,300.7 v 734.2"
         style="fill:none;stroke:#1e2d20;stroke-width:373.984;stroke-linecap:round;stroke-linejoin:round;stroke-miterlimit:10;stroke-dasharray:none;stroke-opacity:1"
         id="path24" />
      <path
         d="M 15044.4,6921.6 V 5329.3 c 0,-165.4 -135.3,-300.7 -300.7,-300.7 h -1220.5"
         style="fill:none;stroke:#1e2d20;stroke-width:373.984;stroke-linecap:round;stroke-linejoin:round;stroke-miterlimit:10;stroke-dasharray:none;stroke-opacity:1"
         id="path26" />
      <path
         d="M 15044.4,9963.7 V 6209.2"
         style="fill:none;stroke:#1e2d20;stroke-width:373.984;stroke-linecap:round;stroke-linejoin:round;stroke-miterlimit:10;stroke-dasharray:none;stroke-opacity:1"
         id="path28" />
      <path
         d="M 15044.4,14671.5 V 9627.7"
         style="fill:none;stroke:#1e2d20;stroke-width:373.984;stroke-linecap:round;stroke-linejoin:round;stroke-miterlimit:10;stroke-dasharray:none;stroke-opacity:1"
         id="path30" />
      <path
         d="m 12692,5107.0117 v 1215.9 c 0,165.3 135.2,300.6 300.6,300.6 h 1352.9"
         style="fill:none;stroke:#1e2d20;stroke-width:373.984;stroke-linecap:round;stroke-linejoin:round;stroke-miterlimit:10;stroke-dasharray:none;stroke-opacity:1"
         id="path32" />
      <path
         d="m 13509.5,12867.1 -6828.71,-2.8"
         style="fill:#2e70a3;fill-opacity:1;stroke:#57593b;stroke-width:373.984;stroke-linecap:round;stroke-linejoin:miter;stroke-miterlimit:10;stroke-dasharray:none;stroke-opacity:1"
         id="path38" />
      <path
         d="m 8727.74,14006 c 0,-243.5 -197.37,-440.9 -440.85,-440.9 -243.48,0 -440.86,197.4 -440.86,440.9 0,243.4 197.38,440.8 440.86,440.8 243.48,0 440.85,-197.4 440.85,-440.8 z"
         style="fill:none;stroke:#2d1b1b;stroke-width:373.984;stroke-linecap:round;stroke-linejoin:round;stroke-miterlimit:10;stroke-dasharray:none;stroke-opacity:1"
         id="path44" />
      <path
         d="m 8185.7,14040.9 c -534.59,0 -967.96,433.4 -967.96,968 0,534.5 433.37,967.9 967.96,967.9 534.59,0 967.96,-433.4 967.96,-967.9"
         style="fill:none;stroke:#747474;stroke-width:373.984;stroke-linecap:round;stroke-linejoin:round;stroke-miterlimit:10;stroke-dasharray:none;stroke-opacity:1"
         id="path40" />
      <path
         d="m 12613.8,14017 c 0,-243.5 -197.4,-440.9 -440.9,-440.9 -243.4,0 -440.8,197.4 -440.8,440.9 0,243.4 197.4,440.8 440.8,440.8 243.5,0 440.9,-197.4 440.9,-440.8 z"
         style="fill:none;stroke:#2d1b1b;stroke-width:322.653;stroke-linecap:round;stroke-linejoin:miter;stroke-miterlimit:10;stroke-dasharray:none;stroke-opacity:1"
         id="path46" />
      <path
         d="m 12035.9,14040.9 c -534.6,0 -967.9,433.4 -967.9,968 0,534.5 433.3,967.9 967.9,967.9 534.6,0 968,-433.4 968,-967.9"
         style="fill:none;stroke:#747474;stroke-width:373.984;stroke-linecap:round;stroke-linejoin:miter;stroke-miterlimit:10;stroke-dasharray:none;stroke-opacity:1"
         id="path42" />
      <path
         d="m 12692,5023.2 5.8,5.4 1751.2,1612.3 3.1,2.8 3.4,3.1"
         style="fill:none;stroke:#1e2d20;stroke-width:373.984;stroke-linecap:round;stroke-linejoin:round;stroke-miterlimit:10;stroke-dasharray:none;stroke-opacity:1"
         id="path36" />
    </g>
  </g>
</svg>
