<?xml version="1.0" encoding="UTF-8" standalone="no"?>
<!-- Created with Inkscape (http://www.inkscape.org/) -->

<svg
   version="1.1"
   id="svg2"
   viewBox="0 0 3872.7998 2927.4666"
   sodipodi:docname="error.svg"
   inkscape:version="1.2.2 (1:1.2.2+202305151914+b0a8486541)"
   xmlns:inkscape="http://www.inkscape.org/namespaces/inkscape"
   xmlns:sodipodi="http://sodipodi.sourceforge.net/DTD/sodipodi-0.dtd"
   xmlns="http://www.w3.org/2000/svg"
   xmlns:svg="http://www.w3.org/2000/svg">
  <defs
     id="defs6" />
  <sodipodi:namedview
     id="namedview4"
     pagecolor="#505050"
     bordercolor="#ffffff"
     borderopacity="1"
     inkscape:showpageshadow="0"
     inkscape:pageopacity="0"
     inkscape:pagecheckerboard="1"
     inkscape:deskcolor="#505050"
     showgrid="false"
     inkscape:zoom="0.19887684"
     inkscape:cx="-45.254138"
     inkscape:cy="1470.7595"
     inkscape:window-width="3440"
     inkscape:window-height="1369"
     inkscape:window-x="0"
     inkscape:window-y="34"
     inkscape:window-maximized="1"
     inkscape:current-layer="g10">
    <inkscape:page
       x="0"
       y="0"
       id="page8"
       width="3872.7998"
       height="2927.4666" />
  </sodipodi:namedview>
  <g
     id="g10"
     inkscape:groupmode="layer"
     inkscape:label="Page 1"
     transform="matrix(1.3333333,0,0,-1.3333333,-645.59998,4045.7332)">
    <g
       id="g12"
       transform="scale(0.1)">
      <path
         d="m 6109,29738 c -365,0 -662,-297 -662,-662 V 9653 c 0,-365 297,-662 662,-662 h 26511 c 365,0 662,297 662,662 v 19423 c 0,365 -297,662 -662,662 z M 32621,8387 H 6109 c -699,0 -1267,568 -1267,1267 v 19422 c 0,699 568,1267 1267,1267 h 26511 c 699,0 1267,-568 1267,-1267 V 9653 c 1,-698 -568,-1266 -1266,-1266 v 0"
         style="fill:#67657c;fill-opacity:1;fill-rule:evenodd;stroke:none"
         id="path14" />
      <path
         d="M 33585,25748 H 5145 c -167,0 -303,135 -303,303 0,168 135,303 303,303 h 28440 c 167,0 303,-135 303,-303 0,-168 -136,-303 -303,-303"
         style="fill:#67657c;fill-opacity:1;fill-rule:evenodd;stroke:none"
         id="path16" />
      <path
         d="m 7978,28452 c -224,0 -407,-182 -407,-407 0,-225 182,-407 407,-407 224,0 407,182 407,407 -1,225 -183,407 -407,407 z m 0,-1418 c -558,0 -1012,454 -1012,1012 0,558 454,1012 1012,1012 558,0 1012,-454 1012,-1012 -1,-558 -455,-1012 -1012,-1012"
         style="fill:#67657c;fill-opacity:1;fill-rule:evenodd;stroke:none"
         id="path18" />
      <path
         d="m 10318,28452 c -224,0 -407,-182 -407,-407 0,-225 182,-407 407,-407 224,0 407,182 407,407 -1,225 -183,407 -407,407 z m 0,-1418 c -558,0 -1012,454 -1012,1012 0,558 454,1012 1012,1012 558,0 1012,-454 1012,-1012 -1,-558 -454,-1012 -1012,-1012"
         style="fill:#67657c;fill-opacity:1;fill-rule:evenodd;stroke:none"
         id="path20" />
      <path
         d="m 12658,28452 c -224,0 -407,-182 -407,-407 0,-225 182,-407 407,-407 224,0 407,182 407,407 -1,225 -183,407 -407,407 z m 0,-1418 c -558,0 -1012,454 -1012,1012 0,558 454,1012 1012,1012 558,0 1012,-454 1012,-1012 0,-558 -454,-1012 -1012,-1012"
         style="fill:#67657c;fill-opacity:1;fill-rule:evenodd;stroke:none"
         id="path22" />
      <path
         d="m 22816,28452 c -221,0 -401,-180 -401,-401 0,-221 180,-401 401,-401 h 7942 c 221,0 401,180 401,401 0,221 -180,401 -401,401 z m 7942,-1407 h -7942 c -555,0 -1006,451 -1006,1006 0,555 451,1006 1006,1006 h 7942 c 555,0 1006,-451 1006,-1006 0,-555 -451,-1006 -1006,-1006"
         style="fill:#67657c;fill-opacity:1;fill-rule:evenodd;stroke:none"
         id="path24" />
      <path
         d="m 6657,9899 c -167,0 -303,135 -303,303 v 14336 c 0,167 135,303 303,303 167,0 303,-135 303,-303 V 10202 c 0,-167 -135,-303 -303,-303 z m 25415,0 c -167,0 -303,135 -303,303 v 14336 c 0,167 135,303 303,303 167,0 303,-135 303,-303 V 10202 c 0,-167 -135,-303 -303,-303"
         style="fill:#67657c;fill-opacity:1;fill-rule:evenodd;stroke:none"
         id="path26" />
      <path
         d="m 9012,24199 c -92,0 -170,-78 -170,-170 V 10711 c 0,-92 78,-170 170,-170 h 20706 c 92,0 170,78 170,170 v 13318 c 0,92 -78,170 -170,170 z M 29718,9936 H 9012 c -428,0 -775,348 -775,775 v 13318 c 0,428 348,775 775,775 h 20706 c 428,0 775,-348 775,-775 V 10711 c 0,-427 -348,-775 -775,-775"
         style="fill:#67657c;fill-opacity:1;fill-rule:evenodd;stroke:none"
         id="path28" />
      <path
         d="m 13340,19675 c -77,0 -155,30 -214,89 -118,118 -118,310 0,428 l 1508,1508 c 118,118 310,118 428,0 118,-118 118,-310 0,-428 l -1508,-1508 c -59,-60 -136,-89 -214,-89"
         style="fill:#67657c;fill-opacity:1;fill-rule:evenodd;stroke:none"
         id="path30" />
      <path
         d="m 14848,19675 c -77,0 -155,30 -214,89 l -1508,1508 c -118,118 -118,310 0,428 118,118 310,118 428,0 l 1508,-1508 c 118,-118 118,-310 0,-428 -59,-60 -136,-89 -214,-89"
         style="fill:#67657c;fill-opacity:1;fill-rule:evenodd;stroke:none"
         id="path32" />
      <path
         d="m 23881,19675 c -77,0 -155,30 -214,89 -118,118 -118,310 0,428 l 1508,1508 c 118,118 310,118 428,0 118,-118 118,-310 0,-428 l -1508,-1508 c -59,-60 -136,-89 -214,-89"
         style="fill:#67657c;fill-opacity:1;fill-rule:evenodd;stroke:none"
         id="path34" />
      <path
         d="m 25389,19675 c -77,0 -155,30 -214,89 l -1508,1508 c -118,118 -118,310 0,428 118,118 310,118 428,0 l 1508,-1508 c 118,-118 118,-310 0,-428 -59,-60 -136,-89 -214,-89 v 0"
         style="fill:#67657c;fill-opacity:1;fill-rule:evenodd;stroke:none"
         id="path36" />
      <path
         d="m 22769,19675 c -163,0 -302,57 -425,108 -71,29 -151,62 -194,62 -43,0 -123,-33 -194,-62 -123,-51 -262,-108 -425,-108 -163,0 -302,57 -425,108 -71,29 -151,62 -194,62 -43,0 -123,-33 -194,-62 -123,-51 -262,-108 -425,-108 -163,0 -302,57 -425,108 -71,29 -151,62 -194,62 -43,0 -123,-33 -194,-62 -123,-51 -262,-108 -425,-108 -163,0 -302,57 -425,108 -71,29 -151,62 -194,62 -43,0 -123,-33 -194,-62 -123,-51 -262,-108 -425,-108 -163,0 -302,57 -425,108 -71,29 -151,62 -194,62 -43,0 -123,-33 -194,-62 -123,-51 -262,-108 -425,-108 -163,0 -302,57 -425,108 -71,29 -151,62 -194,62 -167,0 -303,135 -303,303 0,167 135,303 303,303 163,0 302,-57 425,-108 71,-29 151,-62 194,-62 43,0 123,33 194,62 123,51 262,108 425,108 163,0 302,-57 425,-108 71,-29 151,-62 194,-62 43,0 123,33 194,62 123,51 262,108 425,108 163,0 302,-57 425,-108 71,-29 151,-62 194,-62 43,0 123,33 194,62 123,51 262,108 425,108 163,0 302,-57 425,-108 71,-29 151,-62 194,-62 43,0 123,33 194,62 123,51 262,108 425,108 163,0 302,-57 425,-108 71,-29 151,-62 194,-62 43,0 123,33 194,62 123,51 262,108 425,108 163,0 302,-57 425,-108 71,-29 151,-62 194,-62 167,0 303,-135 303,-303 0,-168 -136,-303 -303,-303 v 0"
         style="fill:#67657c;fill-opacity:1;fill-rule:evenodd;stroke:none"
         id="path38" />
      <path
         d="m 12524,12964 h -1673 c -167,0 -303,135 -303,303 v 3416 c 0,167 135,303 303,303 h 1673 c 167,0 303,-135 303,-303 0,-168 -135,-303 -303,-303 h -1371 v -1103 h 1371 c 167,0 303,-135 303,-303 0,-167 -135,-303 -303,-303 h -1371 v -1103 h 1371 c 167,0 303,-135 303,-303 0,-166 -136,-301 -303,-301"
         style="fill:#67657c;fill-opacity:1;fill-rule:evenodd;stroke:none"
         id="path40" />
      <path
         d="m 14487,12991 c -167,0 -303,135 -303,303 v 3423 c 0,167 135,303 303,303 168,0 303,-135 303,-303 v -3423 c -1,-167 -136,-303 -303,-303"
         style="fill:#67657c;fill-opacity:1;fill-rule:evenodd;stroke:none"
         id="path42" />
      <path
         d="m 14789,15067 h 720 c 371,0 673,302 673,673 0,371 -302,673 -673,673 h -720 z m 720,-605 h -1022 c -167,0 -303,135 -303,303 v 1952 c 0,167 135,303 303,303 h 1022 c 705,0 1278,-573 1278,-1278 0,-706 -573,-1280 -1278,-1280 v 0"
         style="fill:#67657c;fill-opacity:1;fill-rule:evenodd;stroke:none"
         id="path44" />
      <path
         d="m 16215,12991 c -75,0 -149,27 -208,83 l -1557,1471 c -122,115 -127,306 -12,428 115,121 306,127 428,12 l 1557,-1471 c 122,-115 127,-306 12,-428 -60,-63 -140,-95 -220,-95"
         style="fill:#67657c;fill-opacity:1;fill-rule:evenodd;stroke:none"
         id="path46" />
      <path
         d="m 18285,12968 c -167,0 -303,135 -303,303 v 3423 c 0,167 135,303 303,303 168,0 303,-135 303,-303 v -3423 c -1,-167 -136,-303 -303,-303"
         style="fill:#67657c;fill-opacity:1;fill-rule:evenodd;stroke:none"
         id="path48" />
      <path
         d="m 18587,15044 h 720 c 371,0 673,302 673,673 0,371 -302,673 -673,673 h -720 z m 720,-605 h -1022 c -167,0 -303,135 -303,303 v 1952 c 0,167 135,303 303,303 h 1022 c 705,0 1278,-573 1278,-1278 0,-706 -573,-1280 -1278,-1280 v 0"
         style="fill:#67657c;fill-opacity:1;fill-rule:evenodd;stroke:none"
         id="path50" />
      <path
         d="m 20013,12968 c -75,0 -149,27 -208,83 l -1557,1471 c -122,115 -127,306 -12,428 115,121 306,127 428,12 l 1557,-1471 c 121,-115 127,-306 12,-428 -60,-63 -140,-95 -220,-95 v 0"
         style="fill:#67657c;fill-opacity:1;fill-rule:evenodd;stroke:none"
         id="path52" />
      <path
         d="m 23082,16375 c -777,0 -1409,-632 -1409,-1409 0,-777 632,-1409 1409,-1409 777,0 1409,632 1409,1409 0,777 -632,1409 -1409,1409 z m 0,-3423 c -1110,0 -2014,903 -2014,2014 0,1111 903,2014 2014,2014 1110,0 2014,-903 2014,-2014 0,-1111 -904,-2014 -2014,-2014"
         style="fill:#67657c;fill-opacity:1;fill-rule:evenodd;stroke:none"
         id="path54" />
      <path
         d="m 25881,12980 c -167,0 -303,135 -303,303 v 3423 c 0,167 135,303 303,303 167,0 303,-135 303,-303 v -3423 c 0,-168 -136,-303 -303,-303"
         style="fill:#67657c;fill-opacity:1;fill-rule:evenodd;stroke:none"
         id="path56" />
      <path
         d="m 26184,15056 h 720 c 371,0 673,302 673,673 0,371 -302,673 -673,673 h -720 z m 719,-605 h -1022 c -167,0 -303,135 -303,303 v 1952 c 0,167 135,303 303,303 h 1022 c 705,0 1278,-573 1278,-1278 0,-705 -573,-1280 -1278,-1280 v 0"
         style="fill:#67657c;fill-opacity:1;fill-rule:evenodd;stroke:none"
         id="path58" />
      <path
         d="m 27609,12980 c -75,0 -149,27 -208,83 l -1557,1471 c -121,115 -127,306 -12,428 115,121 306,127 428,12 l 1557,-1471 c 121,-115 127,-306 12,-428 -59,-64 -139,-95 -220,-95 v 0"
         style="fill:#67657c;fill-opacity:1;fill-rule:evenodd;stroke:none"
         id="path60" />
      <path
         d="m 8989,28046 c 0,-558 -454,-1012 -1012,-1012 -558,0 -1012,454 -1012,1012 0,558 454,1012 1012,1012 559,0 1012,-454 1012,-1012 z m 2340,0 c 0,-558 -454,-1012 -1012,-1012 -558,0 -1012,454 -1012,1012 0,558 454,1012 1012,1012 559,0 1012,-454 1012,-1012 z m 2341,0 c 0,-558 -454,-1012 -1012,-1012 -558,0 -1012,454 -1012,1012 0,558 454,1012 1012,1012 558,0 1012,-454 1012,-1012 z m 9146,-1001 c -555,0 -1006,451 -1006,1006 0,555 451,1006 1006,1006 h 7942 c 555,0 1006,-451 1006,-1006 0,-555 -451,-1006 -1006,-1006 z M 5447,26353 h 27835 v 2723 c 0,365 -297,662 -662,662 H 6109 c -365,0 -662,-297 -662,-662 z m 662,3385 v 0"
         style="fill:#ffe57f;fill-opacity:1;fill-rule:evenodd;stroke:none"
         id="path62" />
      <path
         d="M 6960,24538 V 10202 c 0,-167 -135,-303 -303,-303 -167,0 -303,135 -303,303 v 14336 c 0,167 135,303 303,303 168,0 303,-136 303,-303 z M 32072,9899 c -167,0 -303,135 -303,303 v 14336 c 0,167 135,303 303,303 167,0 303,-135 303,-303 V 10202 c 0,-167 -135,-303 -303,-303 z M 9012,24804 h 20706 c 428,0 775,-348 775,-775 V 10711 c 0,-428 -348,-775 -775,-775 H 9012 c -428,0 -775,348 -775,775 v 13318 c -1,427 347,775 775,775 z m 24271,944 H 5447 V 9653 c 0,-365 297,-662 662,-662 h 26511 c 365,0 662,297 662,662 l 1,16095 v 0"
         style="fill:#ffe57f;fill-opacity:1;fill-rule:evenodd;stroke:none"
         id="path64" />
      <path
         d="m 12524,15277 c 167,0 303,-135 303,-303 0,-167 -135,-303 -303,-303 h -1371 v -1103 h 1371 c 167,0 303,-135 303,-303 0,-168 -135,-303 -303,-303 h -1673 c -167,0 -303,135 -303,303 v 3416 c 0,167 135,303 303,303 h 1673 c 167,0 303,-135 303,-303 0,-168 -135,-303 -303,-303 h -1371 v -1103 z m 1998,5454 540,-540 c 118,-118 118,-310 0,-428 -59,-59 -137,-89 -214,-89 -77,0 -155,30 -214,89 l -540,540 -540,-540 c -59,-59 -137,-89 -214,-89 -77,0 -155,30 -214,89 -118,118 -118,310 0,428 l 540,540 -540,540 c -118,118 -118,310 0,428 118,118 310,118 428,0 l 540,-540 540,540 c 118,118 310,118 428,0 118,-118 118,-310 0,-428 z m 9145,-540 540,540 -540,540 c -118,118 -118,310 0,428 118,118 310,118 428,0 l 540,-540 540,540 c 118,118 310,118 428,0 118,-118 118,-310 0,-428 l -540,-540 540,-540 c 118,-118 118,-310 0,-428 -59,-59 -137,-89 -214,-89 -77,0 -155,30 -214,89 l -540,540 -540,-540 c -59,-59 -137,-89 -214,-89 -77,0 -155,30 -214,89 -118,118 -118,310 0,428 z m -8158,-3172 c 705,0 1278,-573 1278,-1278 0,-705 -573,-1278 -1278,-1278 h -90 l 1004,-949 c 122,-115 127,-306 12,-428 -60,-63 -140,-95 -220,-95 -75,0 -149,27 -208,83 l -1218,1151 v -931 c 0,-167 -136,-303 -303,-303 -167,0 -303,135 -303,303 v 1466 c 0,2 0,4 0,5 v 1952 c 0,167 135,303 303,303 z m 2776,-23 h 1022 c 705,0 1278,-573 1278,-1278 0,-705 -574,-1278 -1278,-1278 h -90 l 1004,-949 c 121,-115 127,-306 12,-428 -59,-63 -140,-95 -220,-95 -75,0 -149,27 -208,83 l -1218,1151 v -931 c 0,-167 -136,-303 -303,-303 -167,0 -303,135 -303,303 v 1471 1952 c 1,166 137,302 304,302 z m 7293,-3714 v 3423 c 0,167 135,303 303,303 h 1022 c 705,0 1278,-573 1278,-1278 0,-705 -573,-1278 -1278,-1278 h -90 l 1004,-949 c 121,-115 127,-306 12,-428 -59,-63 -140,-95 -220,-95 -75,0 -149,27 -208,83 l -1218,1151 v -931 c 0,-167 -135,-303 -303,-303 -166,0 -302,135 -302,302 z m -2496,3698 c 1110,0 2014,-903 2014,-2014 0,-1110 -904,-2014 -2014,-2014 -1110,0 -2014,903 -2014,2014 0,1110 903,2014 2014,2014 z m -3833,3362 c 123,51 262,108 425,108 163,0 302,-57 425,-108 71,-29 151,-62 194,-62 43,0 123,33 194,62 123,51 262,108 425,108 163,0 302,-57 425,-108 71,-29 151,-62 194,-62 43,0 123,33 194,62 123,51 262,108 425,108 163,0 302,-57 425,-108 71,-29 151,-62 194,-62 167,0 303,-135 303,-303 0,-168 -135,-302 -303,-302 -163,0 -302,57 -425,108 -71,29 -151,62 -194,62 -43,0 -123,-33 -194,-62 -123,-51 -262,-108 -425,-108 -163,0 -302,57 -425,108 -71,29 -151,62 -194,62 -43,0 -123,-33 -194,-62 -123,-51 -262,-108 -425,-108 -163,0 -302,57 -425,108 -71,29 -151,62 -194,62 -43,0 -123,-33 -194,-62 -123,-51 -262,-108 -425,-108 -163,0 -302,57 -425,108 -71,29 -151,62 -194,62 -43,0 -123,-33 -194,-62 -123,-51 -262,-108 -425,-108 -163,0 -302,57 -425,108 -71,29 -151,62 -194,62 -43,0 -123,-33 -194,-62 -123,-51 -262,-108 -425,-108 -163,0 -302,57 -425,108 -71,29 -151,62 -194,62 -167,0 -303,135 -303,303 0,167 135,303 303,303 163,0 302,-57 425,-108 71,-29 151,-62 194,-62 43,0 123,33 194,62 123,51 262,108 425,108 163,0 302,-57 425,-108 71,-29 151,-62 194,-62 43,0 123,33 194,62 123,51 262,108 425,108 163,0 302,-57 425,-108 71,-29 151,-62 194,-62 43,-1 124,32 194,61 z m 10469,3857 H 9012 c -92,0 -170,-78 -170,-170 V 10711 c 0,-92 78,-170 170,-170 h 20706 c 92,0 170,78 170,170 v 13318 c 0,92 -78,170 -170,170 z m -20706,0 v 0"
         style="fill:#a7ffeb;fill-opacity:1;fill-rule:evenodd;stroke:none"
         id="path66" />
      <path
         d="m 12658,27639 c 224,0 407,182 407,407 0,225 -182,407 -407,407 -224,0 -407,-182 -407,-407 0,-225 183,-407 407,-407"
         style="fill:#a7ffeb;fill-opacity:1;fill-rule:evenodd;stroke:none"
         id="path68" />
      <path
         d="m 10318,27639 c 224,0 407,182 407,407 0,225 -182,407 -407,407 -224,0 -407,-182 -407,-407 0,-225 183,-407 407,-407"
         style="fill:#a7ffeb;fill-opacity:1;fill-rule:evenodd;stroke:none"
         id="path70" />
      <path
         d="m 7978,27639 c 224,0 407,182 407,407 0,225 -182,407 -407,407 -224,0 -407,-182 -407,-407 0,-225 182,-407 407,-407"
         style="fill:#a7ffeb;fill-opacity:1;fill-rule:evenodd;stroke:none"
         id="path72" />
      <path
         d="m 22415,28051 c 0,-221 180,-401 401,-401 h 7942 c 221,0 401,180 401,401 0,221 -180,401 -401,401 h -7942 c -221,0 -401,-180 -401,-401 v 0"
         style="fill:#a7ffeb;fill-opacity:1;fill-rule:evenodd;stroke:none"
         id="path74" />
      <path
         d="m 23082,16375 c -777,0 -1409,-632 -1409,-1409 0,-777 632,-1409 1409,-1409 777,0 1409,632 1409,1409 0,777 -632,1409 -1409,1409 v 0"
         style="fill:#a7ffeb;fill-opacity:1;fill-rule:evenodd;stroke:none"
         id="path76" />
      <path
         d="m 19980,15718 c 0,371 -302,673 -673,673 h -720 v -1347 h 720 c 371,0 673,302 673,674 v 0"
         style="fill:#a7ffeb;fill-opacity:1;fill-rule:evenodd;stroke:none"
         id="path78" />
      <path
         d="m 16182,15741 c 0,371 -302,673 -673,673 h -720 v -1347 h 720 c 371,0 673,302 673,674"
         style="fill:#a7ffeb;fill-opacity:1;fill-rule:evenodd;stroke:none"
         id="path80" />
      <path
         d="m 26184,16402 v -1347 h 720 c 371,0 673,302 673,673 0,371 -302,673 -673,673 l -720,1 v 0"
         style="fill:#a7ffeb;fill-opacity:1;fill-rule:evenodd;stroke:none"
         id="path82" />
    </g>
  </g>
</svg>
