<?xml version="1.0" encoding="UTF-8" standalone="no"?>
<svg
   version="1.1"
   viewBox="0 0 928.01211 854.13779"
   inkscape:version="1.2.2 (1:1.2.2+202305151914+b0a8486541)"
   id="svg1922"
   sodipodi:docname="gavel.svg"
   xmlns:inkscape="http://www.inkscape.org/namespaces/inkscape"
   xmlns:sodipodi="http://sodipodi.sourceforge.net/DTD/sodipodi-0.dtd"
   xmlns="http://www.w3.org/2000/svg"
   xmlns:svg="http://www.w3.org/2000/svg">
  <defs
     id="defs6" />
  <sodipodi:namedview
     id="namedview4"
     pagecolor="#ffffff"
     bordercolor="#666666"
     borderopacity="1.0"
     inkscape:pageshadow="2"
     inkscape:pageopacity="0.0"
     inkscape:pagecheckerboard="0"
     showgrid="false"
     fit-margin-top="0"
     fit-margin-left="0"
     fit-margin-right="0"
     fit-margin-bottom="0"
     inkscape:zoom="0.77163027"
     inkscape:cx="675.19383"
     inkscape:cy="226.14457"
     inkscape:window-width="3440"
     inkscape:window-height="1369"
     inkscape:window-x="0"
     inkscape:window-y="34"
     inkscape:window-maximized="1"
     inkscape:current-layer="g8"
     inkscape:showpageshadow="0"
     inkscape:deskcolor="#d1d1d1" />
  <g
     id="g8"
     inkscape:groupmode="layer"
     inkscape:label="ink_ext_XXXXXX"
     transform="matrix(1.3333333,0,0,-1.3333333,-83.489026,1171.6024)">
    <path
       style="fill:#0c6805;fill-opacity:1;fill-rule:nonzero;stroke:#091d1c;stroke-width:6.77475;stroke-miterlimit:4;stroke-dasharray:none;stroke-opacity:1"
       d="m 431.11823,267.97192 c -0.0767,-13.03976 -11.09332,-23.64413 -24.48009,-23.56535 l -316.431521,1.862 c -13.38776,0.0788 -24.2788,10.81205 -24.20207,23.85182 l 0.16054,27.28253 c 0.0767,13.03978 11.09333,23.64414 24.48109,23.56536 L 407.0777,319.10627 c 13.38677,-0.0788 24.27781,-10.81204 24.20107,-23.85182 z"
       id="path1979" />
    <g
       id="g4813"
       transform="rotate(36.200081,620.37644,386.98697)">
      <path
         style="fill:#27246b;fill-opacity:1;fill-rule:nonzero;stroke:#091d1c;stroke-width:6.77475;stroke-miterlimit:4;stroke-dasharray:none;stroke-opacity:1"
         d="m 758.99233,885.29669 c 12.54731,-0.0212 22.9943,-10.49322 23.21307,-23.27144 l 2.87902,-167.6839 c 0.22009,-12.77874 -9.86712,-23.21673 -22.41443,-23.19556 -12.54731,0.0212 -22.99391,10.4923 -23.21308,23.27143 l -2.87901,167.68391 c -0.2197,12.77782 9.86752,23.2158 22.41443,23.19556 z"
         id="path1983" />
      <path
         style="fill:#6b2e24;fill-opacity:1;fill-rule:nonzero;stroke:#091d1c;stroke-width:6.77475;stroke-miterlimit:4;stroke-dasharray:none;stroke-opacity:1"
         d="m 477.28913,885.76296 c 12.54824,-0.0208 22.9943,-10.49322 23.21308,-23.27143 l 2.87992,-167.68352 c 0.22009,-12.77874 -9.86711,-23.21672 -22.41534,-23.19595 -12.54731,0.0212 -22.99299,10.49269 -23.21268,23.27051 L 454.87379,862.567 c -0.21878,12.77822 9.86712,23.21672 22.41534,23.19596 z"
         id="path1981" />
      <path
         style="fill:#340938;fill-opacity:1;fill-rule:nonzero;stroke:#091d1c;stroke-width:6.77475;stroke-miterlimit:4;stroke-dasharray:none;stroke-opacity:1"
         d="m 619.70594,216.83067 c -3.86489,0.006 -7.52587,0.98243 -10.79021,2.6706 -34.03498,9.32984 -34.57464,39.82925 -34.57464,39.82925 l 13.30134,438.36847 c -0.0114,0.68107 0.0232,1.35145 0.0665,2.01909 l -74.49431,0.12417 -2.70682,157.58162 218.22082,-0.36055 2.70629,-157.58294 -74.49431,0.12415 c 0.0659,-0.66848 0.124,-1.33922 0.13581,-2.02121 l 36.08592,-426.32795 c 0,0 -4.86677,-37.67406 -38.42358,-50.33021 -3.7546,-2.6128 -8.30292,-4.13896 -13.21143,-4.13149 z"
         id="path14" />
      <rect
         style="fill:#71690b;fill-opacity:0.67165;stroke:#868ea7;stroke-width:14.4998;stroke-linecap:round;stroke-linejoin:round;stroke-dasharray:none;stroke-opacity:1;paint-order:stroke fill markers"
         id="rect2091"
         width="40.198677"
         height="158.41258"
         x="674.01178"
         y="-857.30176"
         transform="scale(1,-1)"
         rx="10.015728"
         ry="19.075521" />
      <rect
         style="fill:#71690b;fill-opacity:0.67165;stroke:#868ea7;stroke-width:14.4998;stroke-linecap:round;stroke-linejoin:round;stroke-dasharray:none;stroke-opacity:1;paint-order:stroke fill markers"
         id="rect2091-3"
         width="40.198677"
         height="158.41258"
         x="531.2453"
         y="-858.16589"
         transform="scale(1,-1)"
         rx="10.015728"
         ry="19.075521" />
    </g>
  </g>
</svg>
