<?xml version="1.0" standalone="no"?>
<!--Created with Inkscape (http://www.inkscape.org/)-->
<svg xmlns="http://www.w3.org/2000/svg" xmlns:xlink="http://www.w3.org/1999/xlink" viewBox="0 0 48 48">
  <defs>
    <linearGradient id="K">
      <stop offset="0" stop-color="#fff" stop-opacity="1"/>
      <stop offset="1" stop-color="#fff" stop-opacity="0"/>
    </linearGradient>
    <linearGradient id="J">
      <stop offset="0" stop-color="#555753" stop-opacity="1"/>
      <stop offset="1" stop-color="#555753" stop-opacity="0"/>
    </linearGradient>
    <linearGradient id="I">
      <stop offset="0" stop-color="#fff" stop-opacity="1"/>
      <stop offset="1" stop-color="#fff" stop-opacity="0"/>
    </linearGradient>
    <linearGradient id="x">
      <stop offset="0" stop-color="#f57900" stop-opacity="1"/>
      <stop offset="1" stop-color="#f57900" stop-opacity="0"/>
    </linearGradient>
    <linearGradient id="w">
      <stop offset="0" stop-color="#d3d7cf" stop-opacity="1"/>
      <stop offset="1" stop-color="#d3d7cf" stop-opacity="1"/>
    </linearGradient>
    <linearGradient id="G">
      <stop offset="0" stop-color="#4e9a06" stop-opacity="1"/>
      <stop offset="1" stop-color="#9fe859" stop-opacity="1"/>
    </linearGradient>
    <linearGradient id="C">
      <stop offset="0" stop-color="#4e9a06" stop-opacity="1"/>
      <stop offset="1" stop-color="#9fe859" stop-opacity="1"/>
    </linearGradient>
    <linearGradient id="v">
      <stop offset="0" stop-color="#fff" stop-opacity="1"/>
      <stop offset="1" stop-color="#fff" stop-opacity="0"/>
    </linearGradient>
    <linearGradient id="E">
      <stop offset="0" stop-color="#fff" stop-opacity="1"/>
      <stop offset="1" stop-color="#fff" stop-opacity="0"/>
    </linearGradient>
    <linearGradient id="H">
      <stop offset="0" stop-color="#000" stop-opacity="1"/>
      <stop offset="1" stop-color="#000" stop-opacity="0"/>
    </linearGradient>
    <linearGradient id="F">
      <stop offset="0" stop-color="#8ae234" stop-opacity="1"/>
      <stop offset="1" stop-color="#8ae234" stop-opacity="0"/>
    </linearGradient>
    <linearGradient id="u">
      <stop offset="0" stop-color="#d86000" stop-opacity="1"/>
      <stop offset="1" stop-color="#f57900" stop-opacity="0"/>
    </linearGradient>
    <linearGradient id="t">
      <stop offset="0" stop-color="#000" stop-opacity="1"/>
      <stop offset="1" stop-color="#000" stop-opacity="0"/>
    </linearGradient>
    <linearGradient id="z">
      <stop offset="0" stop-color="#fff" stop-opacity="1"/>
      <stop offset="1" stop-color="#fff" stop-opacity="0"/>
    </linearGradient>
    <linearGradient id="D">
      <stop offset="0" stop-color="#fff" stop-opacity="1"/>
      <stop offset="1" stop-color="#fff" stop-opacity="0"/>
    </linearGradient>
    <linearGradient id="B">
      <stop offset="0" stop-color="#8ae234" stop-opacity="1"/>
      <stop offset="1" stop-color="#73d216" stop-opacity="1"/>
    </linearGradient>
    <linearGradient id="A">
      <stop offset="0" stop-color="#8ae234" stop-opacity="1"/>
      <stop offset="1" stop-color="#4e9a06" stop-opacity="1"/>
    </linearGradient>
    <linearGradient id="s">
      <stop offset="0" stop-color="#fff" stop-opacity="1"/>
      <stop offset="1" stop-color="#fff" stop-opacity="0"/>
    </linearGradient>
    <linearGradient id="r">
      <stop offset="0" stop-color="#fff" stop-opacity="1"/>
      <stop offset="1" stop-color="#fff" stop-opacity="0"/>
    </linearGradient>
    <linearGradient id="q">
      <stop offset="0" stop-color="#000" stop-opacity="1"/>
      <stop offset="1" stop-color="#000" stop-opacity="0"/>
    </linearGradient>
    <linearGradient id="p">
      <stop offset="0" stop-color="#fff" stop-opacity="1"/>
      <stop offset="1" stop-color="#fff" stop-opacity="0"/>
    </linearGradient>
    <linearGradient id="o">
      <stop offset="0" stop-color="#ce5c00" stop-opacity="1"/>
      <stop offset="0.5" stop-color="#f57900" stop-opacity="1"/>
      <stop offset="1" stop-color="#ce5c00" stop-opacity="1"/>
    </linearGradient>
    <linearGradient id="n">
      <stop offset="0" stop-color="#f57900" stop-opacity="1"/>
      <stop offset="1" stop-color="#fcaf3e" stop-opacity="1"/>
    </linearGradient>
    <linearGradient id="m">
      <stop offset="0" stop-color="#ce5c00" stop-opacity="1"/>
      <stop offset="1" stop-color="#fcaf3e" stop-opacity="1"/>
    </linearGradient>
    <linearGradient id="l">
      <stop offset="0" stop-color="#555753" stop-opacity="1"/>
      <stop offset="1" stop-color="#555753" stop-opacity="0"/>
    </linearGradient>
    <linearGradient id="k">
      <stop offset="0" stop-color="#000" stop-opacity="1"/>
      <stop offset="1" stop-color="#000" stop-opacity="0"/>
    </linearGradient>
    <linearGradient id="j">
      <stop offset="0" stop-color="#fff" stop-opacity="1"/>
      <stop offset="1" stop-color="#fff" stop-opacity="0"/>
    </linearGradient>
    <linearGradient id="i">
      <stop offset="0" stop-color="#fff" stop-opacity="1"/>
      <stop offset="1" stop-color="#fff" stop-opacity="0"/>
    </linearGradient>
    <linearGradient id="h">
      <stop offset="0" stop-color="#fff" stop-opacity="1"/>
      <stop offset="1" stop-color="#fff" stop-opacity="0"/>
    </linearGradient>
    <linearGradient id="g">
      <stop offset="0" stop-color="#000" stop-opacity="1"/>
      <stop offset="1" stop-color="#000" stop-opacity="0"/>
    </linearGradient>
    <linearGradient id="f">
      <stop offset="0" stop-color="#fff" stop-opacity="1"/>
      <stop offset="1" stop-color="#fff" stop-opacity="0"/>
    </linearGradient>
    <linearGradient id="e">
      <stop offset="0" stop-color="#767973" stop-opacity="1"/>
      <stop offset="1" stop-color="#767973" stop-opacity="0"/>
    </linearGradient>
    <linearGradient id="d">
      <stop offset="0" stop-color="#3465a4" stop-opacity="1"/>
      <stop offset="0.5" stop-color="#729fcf" stop-opacity="1"/>
      <stop offset="1" stop-color="#3465a4" stop-opacity="1"/>
    </linearGradient>
    <linearGradient id="c">
      <stop offset="0" stop-color="#3465a4" stop-opacity="1"/>
      <stop offset="1" stop-color="#9ebdde" stop-opacity="1"/>
    </linearGradient>
    <linearGradient id="b">
      <stop offset="0" stop-color="#729fcf" stop-opacity="1"/>
      <stop offset="1" stop-color="#fff" stop-opacity="1"/>
    </linearGradient>
    <linearGradient id="y">
      <stop offset="0" stop-color="#fff" stop-opacity="1"/>
      <stop offset="0.5" stop-color="#797a76" stop-opacity="1"/>
      <stop offset="1" stop-color="#fff" stop-opacity="1"/>
    </linearGradient>
    <linearGradient id="a">
      <stop offset="0" stop-color="#d6d7d5" stop-opacity="1"/>
      <stop offset="0.25" stop-color="#d1d2d0" stop-opacity="1"/>
      <stop offset="0.50000000" stop-color="#a5a6a3" stop-opacity="1"/>
      <stop offset="1" stop-color="#dddedc" stop-opacity="1"/>
    </linearGradient>
    <linearGradient xlink:href="#a" id="S" x1="5.125" y1="22" x2="17.75" y2="22" gradientUnits="userSpaceOnUse"/>
    <linearGradient xlink:href="#a" id="O" x1="20.875" y1="26.5" x2="45.515541" y2="26.5" gradientUnits="userSpaceOnUse" gradientTransform="translate(0,-4)"/>
    <linearGradient xlink:href="#b" id="Y" x1="15.01351" y1="38.542446" x2="14.700087" y2="25.393929" gradientUnits="userSpaceOnUse"/>
    <linearGradient xlink:href="#c" x1="17.158388" y1="37.721695" x2="16.543814" y2="41.991001" gradientUnits="userSpaceOnUse"/>
    <linearGradient xlink:href="#d" id="X" x1="6.1184831" y1="33.40625" x2="14.250374" y2="33.40625" gradientUnits="userSpaceOnUse"/>
    <linearGradient xlink:href="#e" id="Z" x1="6.875" y1="5.65625" x2="7.25" y2="2.84375" gradientUnits="userSpaceOnUse"/>
    <linearGradient xlink:href="#f" id="aa" gradientUnits="userSpaceOnUse" x1="7.71875" y1="3.9374998" x2="7.8125" y2="3.203125"/>
    <linearGradient xlink:href="#g" id="ab" x1="8.09375" y1="5.46875" x2="8.21875" y2="4.625" gradientUnits="userSpaceOnUse"/>
    <linearGradient xlink:href="#h" id="ac" x1="9.1040001" y1="13.333942" x2="9.1040001" y2="38.878204" gradientUnits="userSpaceOnUse"/>
    <linearGradient xlink:href="#i" id="U" x1="11.125" y1="-2.3753207" x2="11.125" y2="22" gradientUnits="userSpaceOnUse"/>
    <linearGradient xlink:href="#j" id="R" x1="34.648232" y1="7.8655415" x2="34.648232" y2="30.738459" gradientUnits="userSpaceOnUse" gradientTransform="translate(0,-4)"/>
    <linearGradient xlink:href="#k" id="W" x1="14.299476" y1="43.572605" x2="14.335895" y2="40.669292" gradientUnits="userSpaceOnUse"/>
    <linearGradient xlink:href="#l" id="ak" x1="14.470914" y1="44.242531" x2="15.025847" y2="38.546875" gradientUnits="userSpaceOnUse"/>
    <linearGradient xlink:href="#m" x1="16.760378" y1="35.750408" x2="16.175068" y2="41.719719" gradientUnits="userSpaceOnUse"/>
    <linearGradient xlink:href="#n" id="ag" x1="15.191748" y1="42.98222" x2="15.191748" y2="35.085632" gradientUnits="userSpaceOnUse"/>
    <linearGradient xlink:href="#o" id="ad" x1="16.375" y1="32.71875" x2="44" y2="32.71875" gradientUnits="userSpaceOnUse" gradientTransform="translate(0,-4)"/>
    <linearGradient xlink:href="#p" id="al" x1="27.0625" y1="21.3125" x2="27.0625" y2="37.770069" gradientUnits="userSpaceOnUse" gradientTransform="translate(0,-4)"/>
    <linearGradient xlink:href="#h" id="T" gradientUnits="userSpaceOnUse" x1="9.1040001" y1="5.7124372" x2="9.1040001" y2="23.189014" gradientTransform="translate(4,-5)"/>
    <linearGradient xlink:href="#p" id="Q" gradientUnits="userSpaceOnUse" x1="27.0625" y1="19.184877" x2="27.0625" y2="34.681152" gradientTransform="translate(12,-12.140625)"/>
    <radialGradient xlink:href="#q" id="N" cx="16.175068" cy="38.542446" fx="16.175068" fy="38.542446" r="7.8665628" gradientTransform="matrix(1,0,0,0.6179775,0,14.72408)" gradientUnits="userSpaceOnUse"/>
    <linearGradient xlink:href="#r" id="V" x1="6.25" y1="8.375" x2="22.875" y2="67.875" gradientUnits="userSpaceOnUse"/>
    <linearGradient xlink:href="#s" id="P" x1="21.38998" y1="19.980894" x2="27.488775" y2="64.086678" gradientUnits="userSpaceOnUse" gradientTransform="translate(0,-4)"/>
    <radialGradient xlink:href="#q" id="M" gradientUnits="userSpaceOnUse" gradientTransform="matrix(1,0,0,0.6179775,0,14.72408)" cx="16.175068" cy="38.542446" fx="16.175068" fy="38.542446" r="7.8665628"/>
    <radialGradient xlink:href="#t" id="L" cx="16.175068" cy="38.542446" fx="16.175068" fy="38.542446" r="7.8665628" gradientTransform="matrix(1,0,0,0.6179775,0,14.72408)" gradientUnits="userSpaceOnUse"/>
    <linearGradient xlink:href="#u" x1="39.446922" y1="21.922874" x2="37.53125" y2="8.1223602" gradientUnits="userSpaceOnUse" gradientTransform="matrix(1,0,0,-1,30,47)"/>
    <linearGradient xlink:href="#v" id="aj" x1="21.487648" y1="39.649643" x2="20.30304" y2="38.546875" gradientUnits="userSpaceOnUse" gradientTransform="matrix(1.7161243,0,0,0.580864,5.241573,-11.386391)"/>
    <linearGradient xlink:href="#w" id="ai" x1="13.40625" y1="15" x2="13.75" y2="17.46875" gradientUnits="userSpaceOnUse"/>
    <linearGradient xlink:href="#x" id="ah" x1="39.25" y1="21.59375" x2="39.15625" y2="24.0625" gradientUnits="userSpaceOnUse" gradientTransform="translate(0,-1)"/>
    <linearGradient xlink:href="#y" id="am" gradientUnits="userSpaceOnUse" gradientTransform="translate(-1,1)" x1="14.683199" y1="31.5" x2="31.940977" y2="31.5"/>
    <linearGradient xlink:href="#z" id="an" gradientUnits="userSpaceOnUse" x1="23.375" y1="20.49576" x2="23.375" y2="37.098476"/>
    <radialGradient xlink:href="#A" id="ao" gradientUnits="userSpaceOnUse" gradientTransform="matrix(1.1045105,0,0,1.5664755,-3.229383,-20.669066)" cx="20.761353" cy="35.534462" fx="20.761353" fy="35.534462" r="9.0003331"/>
    <linearGradient xlink:href="#B" id="ap" gradientUnits="userSpaceOnUse" x1="18.010229" y1="36.428543" x2="18.056477" y2="40.059414"/>
    <linearGradient xlink:href="#C" gradientUnits="userSpaceOnUse" x1="16.175068" y1="34.164246" x2="15.527606" y2="41.552113"/>
    <linearGradient xlink:href="#D" id="aq" gradientUnits="userSpaceOnUse" x1="19.375" y1="23.3125" x2="28.5" y2="57.5625"/>
    <radialGradient xlink:href="#E" id="ar" gradientUnits="userSpaceOnUse" gradientTransform="matrix(0.8184996,0,0,0.6031124,3.181383,8.585872)" cx="22.915245" cy="22.863281" fx="22.915245" fy="22.863281" r="4.96875"/>
    <linearGradient xlink:href="#F" id="as" gradientUnits="userSpaceOnUse" gradientTransform="translate(-1,0)" x1="18.09375" y1="32.8125" x2="16.96875" y2="37.5625"/>
    <linearGradient xlink:href="#G" id="at" gradientUnits="userSpaceOnUse" gradientTransform="matrix(0.6991617,0,0,0.4114076,10.691013,15.643345)" x1="16.175068" y1="34.164246" x2="15.085135" y2="40.973125"/>
    <radialGradient xlink:href="#h" id="au" gradientUnits="userSpaceOnUse" gradientTransform="matrix(2.4763048,0,0,2.4044519,-30.655989,-44.794737)" cx="19.830584" cy="32.614395" fx="19.830584" fy="32.614395" r="2.7943299"/>
    <radialGradient xlink:href="#H" id="av" gradientUnits="userSpaceOnUse" gradientTransform="matrix(0.8899373,-6.2893082e-3,7.709253e-3,1.0908596,2.221026,-3.816574)" cx="21.9375" cy="25.096191" fx="21.9375" fy="25.096191" r="4.96875"/>
    <linearGradient xlink:href="#I" x1="5.7894368" y1="41.326679" x2="4.9939418" y2="40.884739" gradientUnits="userSpaceOnUse" gradientTransform="translate(0,-2)"/>
    <linearGradient xlink:href="#J" id="ae" x1="37.8125" y1="36.97744" x2="37.8125" y2="24.3263" gradientUnits="userSpaceOnUse"/>
    <linearGradient xlink:href="#K" id="af" x1="38.875" y1="39.640945" x2="38.875" y2="26.311914" gradientUnits="userSpaceOnUse"/>
  </defs>
  <metadata/>
  <path style="marker:none" d="M 24.041631 38.542446 A 7.8665628 4.8613591 0 1 1  8.3085051,38.542446 A 7.8665628 4.8613591 0 1 1  24.041631 38.542446 z" transform="matrix(1.7399595,0,0,1.1313708,-5.831463,-1.1057971)" opacity=".6" color="#000" fill="url(#L)" fill-opacity="1" fill-rule="nonzero" stroke="none" stroke-width="1.02009988" stroke-linecap="round" stroke-linejoin="round" marker-start="none" marker-mid="none" marker-end="none" stroke-miterlimit="4" stroke-dasharray="none" stroke-dashoffset="0" stroke-opacity="1" visibility="visible" display="inline" overflow="visible" enable-background="accumulate"/>
  <path style="marker:none" d="M 24.041631 38.542446 A 7.8665628 4.8613591 0 1 1  8.3085051,38.542446 A 7.8665628 4.8613591 0 1 1  24.041631 38.542446 z" transform="matrix(1.9327229,0,0,1.4929424,2.0341897,-23.85744)" opacity=".9" color="#000" fill="url(#M)" fill-opacity="1" fill-rule="nonzero" stroke="none" stroke-width="1.47826481" stroke-linecap="round" stroke-linejoin="round" marker-start="none" marker-mid="none" marker-end="none" stroke-miterlimit="4" stroke-dasharray="none" stroke-dashoffset="0" stroke-opacity="1" visibility="visible" display="inline" overflow="visible" enable-background="accumulate"/>
  <path style="marker:none" d="M 24.041631 38.542446 A 7.8665628 4.8613591 0 1 1  8.3085051,38.542446 A 7.8665628 4.8613591 0 1 1  24.041631 38.542446 z" transform="matrix(1.2076434,0,0,0.9256669,-8.033711,4.822534)" opacity=".9" color="#000" fill="url(#N)" fill-opacity="1" fill-rule="nonzero" stroke="none" stroke-width="1.47826481" stroke-linecap="round" stroke-linejoin="round" marker-start="none" marker-mid="none" marker-end="none" stroke-miterlimit="4" stroke-dasharray="none" stroke-dashoffset="0" stroke-opacity="1" visibility="visible" display="inline" overflow="visible" enable-background="accumulate"/>
  <path style="marker:none" d="M 33,7.5 C 25.548,7.5 19.5,8.516001 19.5,11 L 19.5,12 C 19.5,12.598934 19.86187,13.164682 20.5,13.6875 L 20.5,34 C 20.5,36.484 26.1,38.5 33,38.5 C 39.9,38.5 45.499999,36.483999 45.5,34 L 45.5,21.109375 L 45.5,13.6875 C 46.13813,13.164682 46.5,12.598934 46.5,12 L 46.5,11 C 46.5,8.516 40.452,7.5 33,7.5 z " opacity="1" color="#000" fill="url(#O)" fill-opacity="1" fill-rule="nonzero" stroke="#767973" stroke-width="1" stroke-linecap="round" stroke-linejoin="round" marker-start="none" marker-mid="none" marker-end="none" stroke-miterlimit="4" stroke-dasharray="none" stroke-dashoffset="0" stroke-opacity="1" visibility="visible" display="inline" overflow="visible" enable-background="accumulate"/>
  <path style="marker:none" d="M 16.1875,34.25 C 14.107496,34.25 12.225837,34.752305 10.90625,35.5625 C 9.586663,36.372695 8.875,37.43076 8.875,38.53125 C 8.875,39.63174 9.5863544,40.682384 10.90625,41.5 C 12.226146,42.317616 14.108815,42.84375 16.1875,42.84375 C 18.266185,42.84375 20.125806,42.317012 21.4375,41.5 C 22.749194,40.682988 23.46875,39.633874 23.46875,38.53125 C 23.46875,37.428626 22.74888,36.372091 21.4375,35.5625 C 20.12612,34.752909 18.267504,34.25 16.1875,34.25 z " transform="matrix(1.7161243,0,0,0.580864,5.241573,-11.386391)" opacity=".66283504" color="#000" fill="none" fill-opacity="1" fill-rule="nonzero" stroke="#fff" stroke-width="1.00158632" stroke-linecap="round" stroke-linejoin="round" marker-start="none" marker-mid="none" marker-end="none" stroke-miterlimit="4" stroke-dasharray="none" stroke-dashoffset="0" stroke-opacity="1" visibility="visible" display="inline" overflow="visible" enable-background="accumulate"/>
  <path style="marker:none" d="M 33,8.5 C 27.5,8.5 20.5,9.5 20.5,11 L 20.5,12 C 20.5,12.190383 20.650185,12.491633 21.15625,12.90625 C 21.380149,13.103443 21.505883,13.389203 21.5,13.6875 L 21.5,34 C 21.5,34.239891 21.631023,34.548541 22.125,34.96875 C 22.618977,35.388959 23.446046,35.839327 24.5,36.21875 C 26.607907,36.977597 29.648783,37.5 33,37.5 C 36.351217,37.5 39.392093,36.977597 41.5,36.21875 C 42.553954,35.839327 43.381023,35.388959 43.875,34.96875 C 44.368977,34.548541 44.5,34.239891 44.5,34 L 44.5,13.6875 C 44.494117,13.389203 44.619851,13.103443 44.84375,12.90625 C 45.349815,12.491633 45.5,12.190383 45.5,12 L 45.5,11 C 45.5,9.5 38.5,8.5 33,8.5 z " opacity=".66283504" color="#000" fill="none" fill-opacity="1" fill-rule="nonzero" stroke="url(#P)" stroke-width="1" stroke-linecap="round" stroke-linejoin="round" marker-start="none" marker-mid="none" marker-end="none" stroke-miterlimit="4" stroke-dashoffset="0" stroke-opacity="1" visibility="visible" display="inline" overflow="visible" enable-background="accumulate"/>
  <path style="marker:none" d="M 37,8.192402 C 38.901083,8.392634 41.279492,8.944072 42,9.24862 L 42,27.361977 L 37,27.361977 L 37,8.192402 z " opacity=".4" color="#000" fill="url(#Q)" fill-opacity="1" fill-rule="nonzero" stroke="none" stroke-width="1" stroke-linecap="round" stroke-linejoin="round" marker-start="none" marker-mid="none" marker-end="none" stroke-miterlimit="4" stroke-dashoffset="0" stroke-opacity="1" visibility="visible" display="inline" overflow="visible" enable-background="accumulate"/>
  <path style="marker:none" d="M 33,8 C 29,8 20,8.5 20,11 L 20,12 C 20,12.39524 20.240215,12.812378 20.8125,13.28125 C 20.934759,13.380153 21.004057,13.530298 21,13.6875 L 21,34 C 21,34.430988 21.248908,34.895571 21.8125,35.375 C 22.376092,35.854429 23.251038,36.325374 24.34375,36.71875 C 26.529174,37.505503 29.599251,38 33,38 C 36.400749,38 39.470826,37.505503 41.65625,36.71875 C 42.748962,36.325374 43.623908,35.854429 44.1875,35.375 C 44.751092,34.895571 45,34.430988 45,34 L 45,13.6875 C 44.995943,13.530298 45.065241,13.380153 45.1875,13.28125 C 45.759785,12.812378 46,12.39524 46,12 L 46,11 C 46,8.5 37,8 33,8 z " opacity=".57854411" color="#000" fill="url(#R)" fill-opacity="1" fill-rule="nonzero" stroke="none" stroke-width="1" stroke-linecap="round" stroke-linejoin="round" marker-start="none" marker-mid="none" marker-end="none" stroke-miterlimit="4" stroke-dashoffset="0" stroke-opacity="1" visibility="visible" display="inline" overflow="visible" enable-background="accumulate"/>
  <path style="marker:none" d="M 11.75 0.5 C 10.272657 0.5 8.9243859 0.70812 7.8125 1.03125 L 0.5 3.21875 L 1.5 3.5 L 1.5 3.53125 L 5.5 8.4375 L 5.5 38.71875 C 4.8761473 39.092639 4.4999999 39.533439 4.5 40 L 4.5 41 C 4.5 42.380001 7.6359995 43.5 11.5 43.5 C 15.364 43.5 18.499999 42.38 18.5 41 L 18.5 40 C 18.5 39.533439 18.123853 39.092639 17.5 38.71875 L 17.5 4.59375 C 18.11784 4.1852056 18.5 3.731072 18.5 3.21875 C 18.5 1.7251101 15.475999 0.5 11.75 0.5 z " opacity="1" color="#000" fill="url(#S)" fill-opacity="1" fill-rule="nonzero" stroke="#767973" stroke-width="1" stroke-linecap="round" stroke-linejoin="round" marker-start="none" marker-mid="none" marker-end="none" stroke-miterlimit="4" stroke-dasharray="none" stroke-dashoffset="0" stroke-opacity="1" visibility="visible" display="inline" overflow="visible" enable-background="accumulate"/>
  <path style="marker:none" d="M 12,1.9558058 C 13.326147,1.9676507 14.125439,2.1533262 15,2.3314563 L 15,35.331456 L 12,35 L 12,1.9558058 z " opacity=".4" color="#000" fill="url(#T)" fill-opacity="1" fill-rule="nonzero" stroke="none" stroke-width="1" stroke-linecap="round" stroke-linejoin="round" marker-start="none" marker-mid="none" marker-end="none" stroke-miterlimit="4" stroke-dashoffset="0" stroke-opacity="1" visibility="visible" display="inline" overflow="visible" enable-background="accumulate"/>
  <path style="marker:none" d="M 11.75,0.96875 C 10.315662,0.96875 9.0047247,1.1585992 7.9375,1.46875 L 1.90625,3.28125 C 1.9200178,3.3112813 1.9304954,3.3427143 1.9375,3.375 L 5.84375,8.15625 C 5.9166158,8.2327717 5.960778,8.3321366 5.96875,8.4375 L 5.96875,38.71875 C 5.9743623,38.88369 5.8907919,39.038893 5.75,39.125 C 5.1926533,39.45903 4.96875,39.779551 4.96875,40 L 4.96875,41 C 4.96875,41.171572 5.0521796,41.378939 5.34375,41.625 C 5.6353204,41.871061 6.119963,42.129898 6.71875,42.34375 C 7.9163239,42.771455 9.6122417,43.03125 11.5,43.03125 C 13.387758,43.03125 15.083676,42.771455 16.28125,42.34375 C 16.880037,42.129897 17.364679,41.871061 17.65625,41.625 C 17.947821,41.378939 18.03125,41.171571 18.03125,41 L 18.03125,40 C 18.03125,39.779551 17.807347,39.45903 17.25,39.125 C 17.109208,39.038893 17.025638,38.88369 17.03125,38.71875 L 17.03125,4.59375 C 17.036519,4.4399332 17.118701,4.2990498 17.25,4.21875 C 17.810078,3.8484002 18.03125,3.50336 18.03125,3.21875 C 18.03125,2.9998512 17.937806,2.767696 17.65625,2.5 C 17.374694,2.232304 16.917299,1.9501799 16.34375,1.71875 C 15.196653,1.2558903 13.562813,0.96875 11.75,0.96875 z " opacity=".45" color="#000" fill="url(#U)" fill-opacity="1" fill-rule="nonzero" stroke="none" stroke-width="1" stroke-linecap="round" stroke-linejoin="round" marker-start="none" marker-mid="none" marker-end="none" stroke-miterlimit="4" stroke-dasharray="none" stroke-dashoffset="0" stroke-opacity="1" visibility="visible" display="inline" overflow="visible" enable-background="accumulate"/>
  <path style="marker:none" d="M 11.75,1.46875 C 10.363655,1.46875 9.1111324,1.6730841 8.09375,1.96875 L 2.78125,3.5625 L 6.25,7.8125 C 6.3940442,7.9886837 6.4714852,8.2099435 6.46875,8.4375 L 6.46875,38.71875 C 6.4736544,39.063344 6.295171,39.384614 6,39.5625 C 5.5168743,39.852048 5.46875,40.054214 5.46875,40 L 5.46875,41 C 5.46875,40.978025 5.4660199,41.03184 5.6875,41.21875 C 5.9089801,41.40566 6.314953,41.643733 6.875,41.84375 C 7.9950941,42.243784 9.661616,42.53125 11.5,42.53125 C 13.338384,42.53125 15.004906,42.243784 16.125,41.84375 C 16.685047,41.643733 17.09102,41.405661 17.3125,41.21875 C 17.53398,41.031839 17.53125,40.978024 17.53125,41 L 17.53125,40 C 17.53125,40.054214 17.483126,39.852048 17,39.5625 C 16.704829,39.384614 16.526346,39.063344 16.53125,38.71875 L 16.53125,4.59375 C 16.530488,4.2664057 16.695043,3.9608031 16.96875,3.78125 C 17.464366,3.4535256 17.53125,3.2492318 17.53125,3.21875 C 17.53125,3.1722866 17.526914,3.0788592 17.3125,2.875 C 17.098086,2.6711408 16.688142,2.4021213 16.15625,2.1875 C 15.092466,1.7582575 13.506805,1.46875 11.75,1.46875 z " opacity=".66283525" color="#000" fill="none" fill-opacity="1" fill-rule="nonzero" stroke="url(#V)" stroke-width="1" stroke-linecap="round" stroke-linejoin="round" marker-start="none" marker-mid="none" marker-end="none" stroke-miterlimit="4" stroke-dasharray="none" stroke-dashoffset="0" stroke-opacity="1" visibility="visible" display="inline" overflow="visible" enable-background="accumulate"/>
  <path style="marker:none" d="M 24.041631 38.542446 A 7.8665628 4.8613591 0 1 1  8.3085051,38.542446 A 7.8665628 4.8613591 0 1 1  24.041631 38.542446 z" transform="matrix(1.7161243,0,0,0.7199634,5.241573,-15.749151)" opacity=".11111109" color="#000" fill="none" fill-opacity="1" fill-rule="nonzero" stroke="url(#W)" stroke-width=".89964348" stroke-linecap="round" stroke-linejoin="round" marker-start="none" marker-mid="none" marker-end="none" stroke-miterlimit="4" stroke-dasharray="none" stroke-dashoffset="0" stroke-opacity="1" visibility="visible" display="inline" overflow="visible" enable-background="accumulate"/>
  <path style="marker:none" d="M 7.5,26 L 7.5,40 C 7.5,40.828001 9.2920002,41.499999 11.5,41.5 C 13.708,41.5 15.5,40.828002 15.5,40 L 15.5,26 L 7.5,26 z " opacity="1" color="#000" fill="url(#X)" fill-opacity="1" fill-rule="nonzero" stroke="#3465a4" stroke-width="1.00000012" stroke-linecap="round" stroke-linejoin="round" marker-start="none" marker-mid="none" marker-end="none" stroke-miterlimit="4" stroke-dasharray="none" stroke-dashoffset="0" stroke-opacity="1" visibility="visible" display="inline" overflow="visible" enable-background="accumulate"/>
  <path style="marker:none" d="M 24.041631 38.542446 A 7.8665628 4.8613591 0 1 1  8.3085051,38.542446 A 7.8665628 4.8613591 0 1 1  24.041631 38.542446 z" transform="matrix(0.5084813,0,0,0.3085554,3.2752807,14.10752)" opacity="1" color="#000" fill="url(#Y)" fill-opacity="1" fill-rule="nonzero" stroke="url(#linearGradient4328)" stroke-width="2.52462006" stroke-linecap="round" stroke-linejoin="round" marker-start="none" marker-mid="none" marker-end="none" stroke-miterlimit="4" stroke-dasharray="none" stroke-dashoffset="0" stroke-opacity="1" visibility="visible" display="inline" overflow="visible" enable-background="accumulate"/>
  <path style="marker:none" d="M 11.75,1.5 C 10.364001,1.5 9.1189497,1.6797469 8.125,2 L 3.65625,3.5 L 8.125,4.96875 C 9.13496,5.2941622 10.377977,5.5 11.75,5.5 C 13.49384,5.5000001 15.074091,5.1858203 16.125,4.71875 C 16.650454,4.4852148 17.032555,4.1971122 17.25,3.96875 C 17.467445,3.7403878 17.5,3.6123766 17.5,3.5 C 17.5,3.3876285 17.467446,3.2596123 17.25,3.03125 C 17.032554,2.8028877 16.650455,2.5147859 16.125,2.28125 C 15.074091,1.8141782 13.493838,1.5 11.75,1.5 z " transform="matrix(0.9252472,0,0,0.75,0.2733147,0.375)" opacity=".46743296" color="#000" fill="none" fill-opacity="1" fill-rule="nonzero" stroke="url(#Z)" stroke-width="1.20044005" stroke-linecap="round" stroke-linejoin="round" marker-start="none" marker-mid="none" marker-end="none" stroke-miterlimit="4" stroke-dasharray="none" stroke-dashoffset="0" stroke-opacity="1" visibility="visible" display="inline" overflow="visible" enable-background="accumulate"/>
  <path style="marker:none" d="M 11.75,1.4375 C 10.360859,1.4375 9.082786,1.6409902 8.0625,1.9375 L 3.8125,3.21875 L 8.0625,4.46875 C 9.0827841,4.7652597 10.360859,4.96875 11.75,4.96875 C 13.512694,4.96875 15.118654,4.674449 16.1875,4.25 C 16.721923,4.0377755 17.095535,3.7981752 17.3125,3.59375 C 17.529465,3.3893248 17.5625,3.2752637 17.5625,3.21875 C 17.5625,3.1622413 17.530825,3.051328 17.3125,2.84375 C 17.094175,2.636172 16.690569,2.3718505 16.15625,2.15625 C 15.087612,1.7250491 13.510068,1.4375 11.75,1.4375 z " transform="translate(-6.25e-2,0.5625)" opacity="1" color="#000" fill="none" fill-opacity="1" fill-rule="nonzero" stroke="url(#aa)" stroke-width="1" stroke-linecap="round" stroke-linejoin="round" marker-start="none" marker-mid="none" marker-end="none" stroke-miterlimit="4" stroke-dasharray="none" stroke-dashoffset="0" stroke-opacity="1" visibility="visible" display="inline" overflow="visible" enable-background="accumulate"/>
  <path style="marker:none" d="M 11.75,0.4375 C 10.263421,0.4375 8.8984836,0.64406585 7.78125,0.96875 L 3.53125,2.25 C 3.0856884,2.3600369 2.7726397,2.759802 2.7726397,3.21875 C 2.7726397,3.677698 3.0856884,4.0774631 3.53125,4.1875 L 7.78125,5.4375 C 8.8984824,5.7621843 10.263421,5.96875 11.75,5.96875 C 13.623751,5.96875 15.322069,5.6800869 16.5625,5.1875 C 17.188086,4.9390738 17.650154,4.6421265 18,4.3125 C 18.314997,4.0157088 18.5625,3.6640879 18.5625,3.21875 C 18.5625,2.7893914 18.312024,2.4216649 18,2.125 C 17.643189,1.7857534 17.166304,1.4749975 16.53125,1.21875 C 15.289368,0.71764424 13.618739,0.4375 11.75,0.4375 z " transform="translate(-6.25e-2,0.5625)" opacity=".08130272" color="#000" fill="none" fill-opacity="1" fill-rule="nonzero" stroke="url(#ab)" stroke-width="1" stroke-linecap="round" stroke-linejoin="round" marker-start="none" marker-mid="none" marker-end="none" stroke-miterlimit="4" stroke-dasharray="none" stroke-dashoffset="0" stroke-opacity="1" visibility="visible" display="inline" overflow="visible" enable-background="accumulate"/>
  <path style="marker:none" d="M 8,7.5801553 C 9.243556,7.9636595 10.09569,7.9557417 11,8 L 11,40 L 8,40 L 8,7.5801553 z " opacity=".5" color="#000" fill="url(#ac)" fill-opacity="1" fill-rule="nonzero" stroke="none" stroke-width="1" stroke-linecap="round" stroke-linejoin="round" marker-start="none" marker-mid="none" marker-end="none" stroke-miterlimit="4" stroke-dashoffset="0" stroke-opacity="1" visibility="visible" display="inline" overflow="visible" enable-background="accumulate"/>
  <path style="marker:none" d="M 22.5,20.5 L 22.5,33 C 22.5,34.892193 27.204,36.4375 33,36.4375 C 38.796,36.4375 43.5,34.892193 43.5,33 L 43.5,20.5 L 22.5,20.5 z " opacity="1" color="#000" fill="url(#ad)" fill-opacity="1" fill-rule="nonzero" stroke="#ce5c00" stroke-width=".99999994" stroke-linecap="round" stroke-linejoin="round" marker-start="none" marker-mid="none" marker-end="none" stroke-miterlimit="4" stroke-dasharray="none" stroke-dashoffset="0" stroke-opacity="1" visibility="visible" display="inline" overflow="visible" enable-background="accumulate"/>
  <path style="marker:none" d="M 16.1875,34.25 C 14.107496,34.25 12.225837,34.752305 10.90625,35.5625 C 9.586663,36.372695 8.875,37.43076 8.875,38.53125 C 8.875,39.63174 9.5863544,40.682384 10.90625,41.5 C 12.226146,42.317616 14.108815,42.84375 16.1875,42.84375 C 18.266185,42.84375 20.125806,42.317012 21.4375,41.5 C 22.749194,40.682988 23.46875,39.633874 23.46875,38.53125 C 23.46875,37.428626 22.74888,36.372091 21.4375,35.5625 C 20.12612,34.752909 18.267504,34.25 16.1875,34.25 z " transform="matrix(1.7161243,0,0,0.580864,5.241573,-11.386391)" opacity=".66283504" color="#000" fill="none" fill-opacity="1" fill-rule="nonzero" stroke="#fff" stroke-width="1.00158632" stroke-linecap="round" stroke-linejoin="round" marker-start="none" marker-mid="none" marker-end="none" stroke-miterlimit="4" stroke-dasharray="none" stroke-dashoffset="0" stroke-opacity="1" visibility="visible" display="inline" overflow="visible" enable-background="accumulate"/>
  <path d="M 40 17.96875 C 39.261867 17.976306 38.638924 18.519724 38.53125 19.25 L 36.375 31.28125 C 35.563371 31.694473 35 32.527365 35 33.5 C 35 34.88 36.12 36 37.5 36 C 38.88 36 40 34.88 40 33.5 C 40 32.8353 39.736083 32.229205 39.3125 31.78125 L 41.46875 19.75 C 41.552372 19.31165 41.440148 18.844303 41.15625 18.5 C 40.872351 18.155698 40.446252 17.970186 40 17.96875 z M 39.9375 18.96875 C 40.009931 18.960492 40.085529 18.975992 40.15625 19 C 40.409947 19.075709 40.560666 19.336041 40.5 19.59375 L 38.25 32.1875 C 38.703666 32.445551 39 32.9411 39 33.5 C 39 34.328 38.328 35 37.5 35 C 36.672 35 36 34.328 36 33.5 C 36 32.755005 36.537812 32.14781 37.25 32.03125 L 39.5 19.40625 C 39.520091 19.258237 39.591746 19.141121 39.71875 19.0625 C 39.782251 19.023189 39.865069 18.977008 39.9375 18.96875 z " opacity=".76628352" fill="url(#ae)" fill-opacity="1" fill-rule="evenodd" stroke="none" stroke-width="3" stroke-linecap="round" stroke-linejoin="miter" stroke-miterlimit="4" stroke-dasharray="none" stroke-opacity="1"/>
  <path d="M 39.9375,18.96875 C 39.865069,18.977008 39.782251,19.023189 39.71875,19.0625 C 39.591746,19.141121 39.520091,19.258237 39.5,19.40625 L 37.25,32.03125 C 36.537812,32.14781 36,32.755005 36,33.5 C 36,34.328 36.672,35 37.5,35 C 38.328,35 39,34.328 39,33.5 C 39,32.9411 38.703666,32.445551 38.25,32.1875 L 40.5,19.59375 C 40.560666,19.336041 40.409947,19.075709 40.15625,19 C 40.085529,18.975992 40.009931,18.960492 39.9375,18.96875 z " opacity=".5210728" fill="url(#af)" fill-opacity="1" fill-rule="evenodd" stroke="none" stroke-width="1px" stroke-linecap="round" stroke-linejoin="miter" stroke-opacity="1"/>
  <path style="marker:none" d="M 24.041631 38.542446 A 7.8665628 4.8613591 0 1 1  8.3085051,38.542446 A 7.8665628 4.8613591 0 1 1  24.041631 38.542446 z" transform="matrix(1.3347634,0,0,0.6096944,11.410111,-2.9630563)" opacity="1" color="#000" fill="url(#ag)" fill-opacity="1" fill-rule="nonzero" stroke="url(#linearGradient4514)" stroke-width="1.10851538" stroke-linecap="round" stroke-linejoin="round" marker-start="none" marker-mid="none" marker-end="none" stroke-miterlimit="4" stroke-dasharray="none" stroke-dashoffset="0" stroke-opacity="1" visibility="visible" display="inline" overflow="visible" enable-background="accumulate"/>
  <path d="M 38.752205,18.5625 L 37.838848,22.671875 C 38.967558,22.5386 39.880231,22.272539 40.951237,21.921875 L 41.473652,19.328125 C 41.057482,19.130563 40.682475,19.077741 40.103537,18.90625 C 39.661664,18.77536 39.274374,18.670582 38.752205,18.5625 z " opacity="1" fill="url(#ah)" fill-opacity="1" fill-rule="evenodd" stroke="none" stroke-width="2.79999995" stroke-linecap="round" stroke-linejoin="miter" stroke-miterlimit="4" stroke-dasharray="none" stroke-opacity="1"/>
  <g transform="matrix(-1,0,0,1,55,-3)" opacity=".8">
    <path d="M 15,22.5 L 12.5,7.5" opacity="1" fill="none" fill-opacity="1" fill-rule="evenodd" stroke="url(#ai)" stroke-width="2.79999995" stroke-linecap="round" stroke-linejoin="miter" stroke-miterlimit="4" stroke-dasharray="none" stroke-opacity="1"/>
    <path d="M 15,22.5 L 12.5,7.5" fill="none" fill-opacity="1" fill-rule="evenodd" stroke="#eeeeec" stroke-width="1px" stroke-linecap="round" stroke-linejoin="miter" stroke-opacity="1"/>
  </g>
  <path style="marker:none" d="M 33.021335,8.508201 C 29.45179,8.508201 26.222629,8.7999719 23.958054,9.270585 C 21.693478,9.741198 20.472176,10.35579 20.472176,10.995025 C 20.472176,11.63426 21.692949,12.244541 23.958054,12.719465 C 26.223159,13.194389 29.454053,13.500001 33.021335,13.500001 C 36.588617,13.500001 39.779958,13.194038 42.030988,12.719465 C 44.282018,12.244892 45.516865,11.6355 45.516865,10.995025 C 45.516865,10.35455 44.281479,9.740847 42.030988,9.270585 C 39.780497,8.8003227 36.590881,8.508201 33.021335,8.508201 z " opacity=".66283504" color="#000" fill="none" fill-opacity="1" fill-rule="nonzero" stroke="url(#aj)" stroke-width=".99999994" stroke-linecap="round" stroke-linejoin="round" marker-start="none" marker-mid="none" marker-end="none" stroke-miterlimit="4" stroke-dashoffset="0" stroke-opacity="1" visibility="visible" display="inline" overflow="visible" enable-background="accumulate"/>
  <path style="marker:none" d="M 23.958054,-5.5932627 C 26.223159,-4.9280573 29.454053,-4.4999992 33.021335,-4.4999992 C 36.588617,-4.4999992 39.779958,-4.9285487 42.030988,-5.5932627 C 44.282018,-6.2579768 45.516865,-7.111527 45.516865,-8.0086125" opacity=".66283504" color="#000" fill="none" fill-opacity="1" fill-rule="nonzero" stroke="#fff" stroke-width="1" stroke-linecap="round" stroke-linejoin="round" marker-start="none" marker-mid="none" marker-end="none" stroke-miterlimit="4" stroke-dashoffset="0" stroke-opacity="1" visibility="visible" display="inline" overflow="visible" enable-background="accumulate"/>
  <path style="marker:none" d="M 16.1875,34.25 C 14.107496,34.25 12.225837,34.752305 10.90625,35.5625 C 9.586663,36.372695 8.875,37.43076 8.875,38.53125 C 8.875,39.63174 9.5863544,40.682384 10.90625,41.5 C 12.226146,42.317616 14.108815,42.84375 16.1875,42.84375 C 18.266185,42.84375 20.125806,42.317012 21.4375,41.5 C 22.749194,40.682988 23.46875,39.633874 23.46875,38.53125 C 23.46875,37.428626 22.74888,36.372091 21.4375,35.5625 C 20.12612,34.752909 18.267504,34.25 16.1875,34.25 z " transform="matrix(1.576768,0,0,0.4654543,7.4952249,-7.4418108)" opacity=".36015326" color="#000" fill="none" fill-opacity="1" fill-rule="nonzero" stroke="url(#ak)" stroke-width="1.16728663" stroke-linecap="round" stroke-linejoin="round" marker-start="none" marker-mid="none" marker-end="none" stroke-miterlimit="4" stroke-dasharray="none" stroke-dashoffset="0" stroke-opacity="1" visibility="visible" display="inline" overflow="visible" enable-background="accumulate"/>
  <path style="marker:none" d="M 25,16.176777 C 26.602879,16.537042 28.7993,16.758796 30,16.889245 L 30,35.502602 L 25,35.502602 L 25,16.176777 z " opacity=".6" color="#000" fill="url(#al)" fill-opacity="1" fill-rule="nonzero" stroke="none" stroke-width="1" stroke-linecap="round" stroke-linejoin="round" marker-start="none" marker-mid="none" marker-end="none" stroke-miterlimit="4" stroke-dashoffset="0" stroke-opacity="1" visibility="visible" display="inline" overflow="visible" enable-background="accumulate"/>
  <path style="marker:none" d="M 42.5 5.5 A 0.5 0.5 0 1 1  41.5,5.5 A 0.5 0.5 0 1 1  42.5 5.5 z" transform="translate(0,-1)" opacity="1" color="#000" fill="#fff" fill-opacity="1" fill-rule="nonzero" stroke="none" stroke-width="1" stroke-linecap="round" stroke-linejoin="round" marker-start="none" marker-mid="none" marker-end="none" stroke-miterlimit="4" stroke-dasharray="none" stroke-dashoffset="0" stroke-opacity="1" visibility="visible" display="inline" overflow="visible" enable-background="accumulate"/>
  <path d="M 22,18.5 C 19.0295,18.5 17.159807,19.686844 14.5,20.5 L 17.5625,23.75 C 17.83045,24.999686 17.874274,26.407157 17,27.5 C 15,30 11.447773,33.476929 11.5,39 C 11.5,43.14 16.204,46.5 22,46.5 C 27.796,46.5 32.5,43.14 32.5,39 C 32.243406,33.707943 29.000001,30 27,27.5 C 25.354098,25.442623 26.917552,22.294116 27.15625,21.15625 C 27.362179,20.94722 27.5,20.733866 27.5,20.5 C 27.5,19.396007 24.9705,18.5 22,18.5 z " style="marker:none" opacity=".7" color="#000" fill="url(#am)" fill-opacity="1" fill-rule="nonzero" stroke="#555753" stroke-width="1" stroke-linecap="round" stroke-linejoin="round" marker-start="none" marker-mid="none" marker-end="none" stroke-miterlimit="4" stroke-dashoffset="0" stroke-opacity="1" visibility="visible" display="inline" overflow="visible" enable-background="accumulate"/>
  <path transform="translate(-1,0)" d="M 23,19 C 20.440839,19 18.683128,19.924903 16.375,20.71875 L 18.90625,23.40625 C 18.971192,23.475758 19.014609,23.562591 19.03125,23.65625 C 19.312779,24.969267 19.383096,26.55238 18.375,27.8125 C 16.33646,30.360675 12.949787,33.689945 13,39 C 13,40.88354 14.070809,42.617542 15.875,43.90625 C 17.679191,45.194958 20.197133,46 23,46 C 25.802867,46 28.320809,45.194958 30.125,43.90625 C 31.919127,42.624731 32.988182,40.902567 33,39.03125 C 32.999483,39.020589 33.000542,39.010648 33,39 C 32.741095,33.914218 29.634648,30.324559 27.625,27.8125 C 26.678018,26.628773 26.647796,25.160351 26.875,23.90625 C 27.102204,22.652149 27.593761,21.509352 27.6875,21.0625 C 27.704141,20.968841 27.747558,20.882008 27.8125,20.8125 C 27.977961,20.644548 28,20.540448 28,20.5 C 28,20.412001 27.966579,20.276489 27.75,20.09375 C 27.533421,19.911011 27.152336,19.730153 26.6875,19.5625 C 25.757829,19.227195 24.435751,19 23,19 z " style="marker:none" opacity=".5" color="#000" fill="url(#an)" fill-opacity="1" fill-rule="nonzero" stroke="none" stroke-width="1" stroke-linecap="round" stroke-linejoin="round" marker-start="none" marker-mid="none" marker-end="none" stroke-miterlimit="4" stroke-dashoffset="0" stroke-opacity="1" visibility="visible" display="inline" overflow="visible" enable-background="accumulate"/>
  <path d="M 16.34375,31.5 C 14.809002,33.510214 13.470249,35.822558 13.5,38.96875 C 13.500081,38.979167 13.500081,38.989583 13.5,39 C 13.5,40.313335 14.240328,41.609163 15.75,42.6875 C 17.259672,43.765837 19.488054,44.5 22,44.5 C 24.511946,44.5 26.740328,43.765837 28.25,42.6875 C 29.748443,41.617183 30.489216,40.33439 30.5,39.03125 C 30.499417,39.020464 30.500612,39.010771 30.5,39 C 30.328819,35.987594 29.023777,33.555845 27.5625,31.5 L 16.34375,31.5 z " style="marker:none" color="#000" fill="url(#ao)" fill-opacity="1" fill-rule="nonzero" stroke="#4e9a06" stroke-width="1" stroke-linecap="round" stroke-linejoin="round" marker-start="none" marker-mid="none" marker-end="none" stroke-miterlimit="4" stroke-dashoffset="0" stroke-opacity="1" visibility="visible" display="inline" overflow="visible" enable-background="accumulate"/>
  <path transform="matrix(0.6991617,0,0,0.4114076,10.691013,15.643345)" d="M 24.041631 38.542446 A 7.8665628 4.8613591 0 1 1  8.3085051,38.542446 A 7.8665628 4.8613591 0 1 1  24.041631 38.542446 z" style="marker:none" color="#000" fill="url(#ap)" fill-opacity="1" fill-rule="nonzero" stroke="url(#linearGradient3583)" stroke-width="1.86455441" stroke-linecap="round" stroke-linejoin="round" marker-start="none" marker-mid="none" marker-end="none" stroke-miterlimit="4" stroke-dasharray="none" stroke-dashoffset="0" stroke-opacity="1" visibility="visible" display="inline" overflow="visible" enable-background="accumulate"/>
  <path transform="translate(-1,0)" style="marker:none" d="M 23,19.5 C 20.86204,19.5 19.237511,20.226098 17.3125,20.9375 L 19.3125,23.0625 C 19.436168,23.193643 19.522487,23.355491 19.5625,23.53125 C 19.858306,24.910853 19.930048,26.689002 18.78125,28.125 C 16.702189,30.723826 13.451905,33.913912 13.5,39 C 13.5,40.687494 14.45332,42.252371 16.15625,43.46875 C 17.85918,44.685129 20.297156,45.5 23,45.5 C 25.702844,45.5 28.14082,44.685129 29.84375,43.46875 C 31.526233,42.266976 32.477474,40.727071 32.5,39.0625 C 32.498957,39.040994 32.501149,39.021451 32.5,39 C 32.239112,34.130285 29.238276,30.649407 27.21875,28.125 C 26.141361,26.778264 26.134925,25.137644 26.375,23.8125 C 26.615075,22.487356 27.214437,21.255996 27.28125,20.9375 C 27.31722,20.775947 27.392339,20.625708 27.5,20.5 C 27.348897,20.377069 26.945355,20.180606 26.53125,20.03125 C 25.6794,19.724013 24.383706,19.5 23,19.5 z " opacity=".58999999" color="#000" fill="none" fill-opacity="1" fill-rule="nonzero" stroke="url(#aq)" stroke-width="1" stroke-linecap="round" stroke-linejoin="round" stroke-miterlimit="4" stroke-dashoffset="0" stroke-opacity="1" marker-start="none" marker-mid="none" marker-end="none" visibility="visible" display="inline" overflow="visible" enable-background="accumulate"/>
  <path transform="matrix(1,0,0,1.5,-1,-9.7500003)" d="M 23,19.5 C 21.290422,19.5 19.908783,19.96005 18.46875,20.5 C 19.898992,21.038819 21.267247,21.5 23,21.5 C 24.400291,21.5 25.683204,21.275742 26.53125,20.96875 C 26.955273,20.815254 27.261471,20.623159 27.40625,20.5 C 27.258948,20.375714 26.957806,20.185096 26.53125,20.03125 C 25.678139,19.723558 24.38455,19.5 23,19.5 z " style="marker:none" opacity=".5" color="#000" fill="#000" fill-opacity=".10266161" fill-rule="nonzero" stroke="#fff" stroke-width=".81649655" stroke-linecap="round" stroke-linejoin="round" marker-start="none" marker-mid="none" marker-end="none" stroke-miterlimit="4" stroke-dasharray="none" stroke-dashoffset="0" stroke-opacity="1" visibility="visible" display="inline" overflow="visible" enable-background="accumulate"/>
  <g transform="translate(-1,0)" opacity=".7">
    <path d="M 17.5,36.5 L 28.5,10.5" fill="#888a85" fill-opacity="1" fill-rule="evenodd" stroke="#babdb6" stroke-width="3" stroke-linecap="round" stroke-linejoin="miter" stroke-miterlimit="4" stroke-dasharray="none" stroke-opacity="1"/>
    <path style="marker:none" d="M 19 38 A 1 1 0 1 1  17,38 A 1 1 0 1 1  19 38 z" transform="matrix(2.5,0,0,2.5,-27.5,-58.5)" opacity="1" color="#000" fill="#888a85" fill-opacity="1" fill-rule="nonzero" stroke="none" stroke-width="1" stroke-linecap="round" stroke-linejoin="round" marker-start="none" marker-mid="none" marker-end="none" stroke-miterlimit="4" stroke-dasharray="none" stroke-dashoffset="0" stroke-opacity="1" visibility="visible" display="inline" overflow="visible" enable-background="accumulate"/>
    <path d="M 17.5,36.5 L 28.5,10.5" fill="none" fill-rule="evenodd" stroke="#fff" stroke-width="1px" stroke-linecap="round" stroke-linejoin="miter" stroke-opacity="1"/>
    <path style="marker:none" d="M 19 38 A 1 1 0 1 1  17,38 A 1 1 0 1 1  19 38 z" transform="matrix(1.5,0,0,1.5,-9.5,-20.5)" opacity="1" color="#000" fill="#fff" fill-opacity="1" fill-rule="nonzero" stroke="none" stroke-width="1" stroke-linecap="round" stroke-linejoin="round" marker-start="none" marker-mid="none" marker-end="none" stroke-miterlimit="4" stroke-dasharray="none" stroke-dashoffset="0" stroke-opacity="1" visibility="visible" display="inline" overflow="visible" enable-background="accumulate"/>
  </g>
  <path d="M 17.46875,21.5 C 18.898992,22.038819 20.267247,22.5 22,22.5 C 23.400291,22.5 24.683204,22.275742 25.53125,21.96875 C 25.955273,21.815254 26.261471,21.623159 26.40625,21.5" style="marker:none" color="#000" fill="none" fill-opacity=".10266161" fill-rule="nonzero" stroke="url(#ar)" stroke-width=".99999994" stroke-linecap="round" stroke-linejoin="round" marker-start="none" marker-mid="none" marker-end="none" stroke-miterlimit="4" stroke-dashoffset="0" stroke-opacity="1" visibility="visible" display="inline" overflow="visible" enable-background="accumulate"/>
  <path d="M 17.03125,31.40625 L 15.90625,34.09375 C 14.816804,34.36347 14,35.327573 14,36.5 C 14,37.88 15.12,39 16.5,39 C 17.88,39 19,37.88 19,36.5 C 19,36.044865 18.86905,35.617721 18.65625,35.25 L 20.1875,31.65625 C 19.87291,31.855762 19.35375,32 18.75,32 C 17.90475,32 17.19452,31.74791 17.03125,31.40625 z " fill="url(#as)" fill-opacity="1" fill-rule="evenodd" stroke="none" stroke-width="3" stroke-linecap="round" stroke-linejoin="miter" stroke-miterlimit="4" stroke-dasharray="none" stroke-opacity="1"/>
  <path d="M 22.000001,33.5 C 18.964001,33.5 16.500002,32.604 16.500002,31.5" style="marker:none" color="#000" fill="none" fill-opacity="1" fill-rule="nonzero" stroke="url(#at)" stroke-width="1.00000012" stroke-linecap="round" stroke-linejoin="round" marker-start="none" marker-mid="none" marker-end="none" stroke-miterlimit="4" stroke-dashoffset="0" stroke-opacity="1" visibility="visible" display="inline" overflow="visible" enable-background="accumulate"/>
  <path d="M 19,21.5 C 20.243556,21.74672 21.09569,21.741627 22,21.770099 C 22.5,29.5 19.5,36.5 22,43 L 19,43 C 11.5,35 23.5,28.5 19,21.5 z " style="marker:none" opacity=".7" color="#000" fill="url(#au)" fill-opacity="1" fill-rule="nonzero" stroke="none" stroke-width="1" stroke-linecap="round" stroke-linejoin="round" marker-start="none" marker-mid="none" marker-end="none" stroke-miterlimit="4" stroke-dashoffset="0" stroke-opacity="1" visibility="visible" display="inline" overflow="visible" enable-background="accumulate"/>
  <path style="marker:none" d="M 17.46875,22.5 C 18.898992,23.038819 20.267247,23.5 22,23.5 C 23.400291,23.5 24.683204,23.275742 25.53125,22.96875 C 25.955273,22.815254 26.261471,22.623159 26.40625,22.5" opacity=".15" color="#000" fill="none" fill-opacity=".10266161" fill-rule="nonzero" stroke="url(#av)" stroke-width=".99999994" stroke-linecap="round" stroke-linejoin="round" marker-start="none" marker-mid="none" marker-end="none" stroke-miterlimit="4" stroke-dashoffset="0" stroke-opacity="1" visibility="visible" display="inline" overflow="visible" enable-background="accumulate"/>
  <path transform="translate(-15,5)" d="M 42.5 5.5 A 0.5 0.5 0 1 1  41.5,5.5 A 0.5 0.5 0 1 1  42.5 5.5 z" style="marker:none" opacity="1" color="#000" fill="#fff" fill-opacity="1" fill-rule="nonzero" stroke="none" stroke-width="1" stroke-linecap="round" stroke-linejoin="round" marker-start="none" marker-mid="none" marker-end="none" stroke-miterlimit="4" stroke-dasharray="none" stroke-dashoffset="0" stroke-opacity="1" visibility="visible" display="inline" overflow="visible" enable-background="accumulate"/>
</svg>
